<svg width="20" height="16" viewBox="0 0 20 16" fill="none" xmlns="http://www.w3.org/2000/svg">
<path fill-rule="evenodd" clip-rule="evenodd" d="M17.7003 2.47156H15.214C15.1708 2.4714 15.128 2.47977 15.088 2.49619C15.048 2.51262 15.0117 2.53678 14.9811 2.56728C14.9504 2.59778 14.9261 2.63403 14.9096 2.67394C14.893 2.71386 14.8845 2.75665 14.8845 2.79987V8.29164H13.2416C13.1793 8.29203 13.1184 8.30981 13.0656 8.34299C13.0129 8.37617 12.9704 8.42342 12.9431 8.47943C12.9166 8.53609 12.9068 8.59908 12.9146 8.66111C12.9225 8.72315 12.9478 8.78169 12.9875 8.82996L16.2002 12.7722C16.2311 12.8101 16.2701 12.8407 16.3143 12.8617C16.3585 12.8827 16.4068 12.8936 16.4557 12.8936C16.5047 12.8936 16.553 12.8827 16.5972 12.8617C16.6414 12.8407 16.6804 12.8101 16.7113 12.7722L19.924 8.8309C19.964 8.78277 19.9895 8.72422 19.9974 8.66213C20.0053 8.60003 19.9953 8.53697 19.9686 8.48035C19.9419 8.42373 19.8996 8.37589 19.8467 8.34247C19.7938 8.30904 19.7324 8.29141 19.6698 8.29164H18.0299V2.79987C18.0298 2.71246 17.995 2.62865 17.9333 2.56682C17.8715 2.50498 17.7877 2.47016 17.7003 2.47V2.47156ZM4.88522 7.33237C4.89212 7.13033 4.96404 6.93591 5.0903 6.77802C5.21655 6.62013 5.39039 6.50721 5.58597 6.45604V8.20589C5.39039 8.15472 5.21655 8.0418 5.0903 7.88391C4.96404 7.72602 4.89212 7.5316 4.88522 7.32956V7.33237ZM6.94334 9.84181C6.9366 10.0435 6.86504 10.2377 6.73927 10.3955C6.6135 10.5534 6.44021 10.6665 6.2451 10.7181V8.96548C6.44021 9.0171 6.6135 9.13022 6.73927 9.28807C6.86504 9.44592 6.9366 9.64009 6.94334 9.84181ZM4.88522 9.84181C4.88522 9.7544 4.8505 9.67057 4.7887 9.60877C4.72689 9.54696 4.64306 9.51224 4.55566 9.51224C4.46825 9.51224 4.38443 9.54696 4.32262 9.60877C4.26082 9.67057 4.2261 9.7544 4.2261 9.84181C4.23611 10.2187 4.37747 10.5804 4.62577 10.8641C4.87407 11.1479 5.2137 11.3361 5.58597 11.396V11.8655C5.58597 11.9529 5.62069 12.0367 5.6825 12.0985C5.7443 12.1603 5.82813 12.1951 5.91554 12.1951C6.00294 12.1951 6.08677 12.1603 6.14857 12.0985C6.21038 12.0367 6.2451 11.9529 6.2451 11.8655V11.396C6.62107 11.345 6.9658 11.1594 7.2154 10.8737C7.465 10.5879 7.60255 10.2214 7.60255 9.84196C7.60255 9.46254 7.465 9.09599 7.2154 8.81024C6.9658 8.52448 6.62107 8.3389 6.2451 8.28789V6.45729C6.44006 6.50919 6.61318 6.62238 6.73891 6.78017C6.86464 6.93797 6.93631 7.13199 6.94334 7.33363C6.94334 7.42103 6.97807 7.50486 7.03987 7.56666C7.10168 7.62847 7.1855 7.66319 7.27291 7.66319C7.36031 7.66319 7.44414 7.62847 7.50594 7.56666C7.56775 7.50486 7.60247 7.42103 7.60247 7.33363C7.59299 6.95692 7.45212 6.59539 7.20425 6.31156C6.95638 6.02774 6.61709 5.8395 6.2451 5.77939V5.30993C6.2451 5.22252 6.21038 5.1387 6.14857 5.07689C6.08677 5.01509 6.00294 4.98037 5.91554 4.98037C5.82813 4.98037 5.7443 5.01509 5.6825 5.07689C5.62069 5.1387 5.58597 5.22252 5.58597 5.30993V5.77939C5.20961 5.82989 4.86435 6.01526 4.61433 6.30108C4.3643 6.58689 4.22649 6.95373 4.22649 7.33347C4.22649 7.71321 4.3643 8.08005 4.61433 8.36586C4.86435 8.65168 5.20961 8.83704 5.58597 8.88755V10.7181C5.39039 10.667 5.21655 10.554 5.0903 10.3962C4.96404 10.2383 4.89212 10.0438 4.88522 9.84181ZM5.91522 4.49181C5.10515 4.49138 4.31314 4.7312 3.63938 5.18095C2.96562 5.63069 2.44038 6.27016 2.13009 7.01845C1.8198 7.76674 1.73841 8.59025 1.8962 9.38481C2.054 10.1794 2.44389 10.9093 3.01657 11.4822C3.58925 12.0552 4.31898 12.4454 5.11347 12.6036C5.90796 12.7617 6.7315 12.6807 7.47994 12.3707C8.22837 12.0608 8.86807 11.5359 9.31813 10.8623C9.76818 10.1887 10.0084 9.39685 10.0083 8.58678C10.007 7.50146 9.57538 6.46094 8.80812 5.69333C8.04086 4.92571 7.00054 4.49364 5.91522 4.49181ZM5.91522 13.3421C6.85581 13.3424 7.77536 13.0638 8.55757 12.5415C9.33979 12.0191 9.94954 11.2765 10.3097 10.4077C10.6699 9.53875 10.7643 8.58256 10.5809 7.66002C10.3976 6.73747 9.94486 5.89 9.27987 5.2248C8.61489 4.55959 7.76757 4.10654 6.84508 3.92292C5.9226 3.73931 4.96637 3.83339 4.09736 4.19327C3.22834 4.55314 2.48557 5.16264 1.96298 5.94469C1.44038 6.72673 1.16145 7.64619 1.16145 8.58678C1.16286 9.84727 1.6641 11.0558 2.55526 11.9472C3.44641 12.8387 4.65473 13.3403 5.91522 13.3421ZM0 15.2137C-8.59891e-08 15.2537 0.01585 15.292 0.044073 15.3203C0.0722959 15.3485 0.110586 15.3645 0.150541 15.3646H11.6793C11.7195 15.3646 11.7582 15.3489 11.7869 15.3206C11.8156 15.2924 11.8321 15.254 11.8326 15.2137V3.75883H8.88191C8.66714 3.75841 8.4613 3.67285 8.30952 3.52089C8.15774 3.36894 8.07241 3.16299 8.07224 2.94822V0H0.151792C0.132023 0 0.112447 0.0038937 0.0941829 0.0114591C0.0759185 0.0190245 0.0593235 0.0301131 0.0453445 0.0440921C0.0313655 0.0580711 0.0202763 0.0746666 0.0127109 0.0929311C0.00514551 0.111196 0.00125181 0.130771 0.00125181 0.150541V15.2137H0ZM8.732 0.449431L11.4101 3.09782H8.88191C8.84201 3.09774 8.80377 3.08185 8.77555 3.05364C8.74734 3.02543 8.73145 2.98718 8.73137 2.94728L8.732 0.449431Z" fill="white"/>
</svg>
