<svg width="13" height="20" viewBox="0 0 13 20" fill="none" xmlns="http://www.w3.org/2000/svg">
<path d="M5.77812 11.9996V13.3331C5.66024 13.3331 5.54719 13.2862 5.46384 13.2029C5.38048 13.1195 5.33365 13.0065 5.33365 12.8886V12.4441C5.33365 12.3262 5.38048 12.2132 5.46384 12.1298C5.54719 12.0465 5.66024 11.9996 5.77812 11.9996ZM6.66707 15.5554V14.222C6.78495 14.222 6.898 14.2688 6.98135 14.3522C7.06471 14.4355 7.11154 14.5486 7.11154 14.6665V15.1109C7.11154 15.2288 7.06471 15.3419 6.98135 15.4252C6.898 15.5086 6.78495 15.5554 6.66707 15.5554ZM6.22259 7.55493C4.99188 7.55493 3.78881 7.91988 2.76551 8.60363C1.74221 9.28737 0.944643 10.2592 0.473669 11.3962C0.00269614 12.5333 -0.120532 13.7844 0.119568 14.9915C0.359668 16.1986 0.952314 17.3073 1.82256 18.1776C2.6928 19.0478 3.80156 19.6405 5.00863 19.8806C6.21569 20.1207 7.46685 19.9974 8.60388 19.5265C9.74091 19.0555 10.7127 18.2579 11.3965 17.2346C12.0802 16.2113 12.4452 15.0082 12.4452 13.7775C12.4452 12.1272 11.7896 10.5445 10.6226 9.37749C9.45567 8.21053 7.87293 7.55493 6.22259 7.55493ZM6.22259 18.6667C5.25561 18.6667 4.31033 18.38 3.50631 17.8427C2.70229 17.3055 2.07563 16.5419 1.70558 15.6485C1.33553 14.7552 1.23871 13.7721 1.42736 12.8237C1.61601 11.8753 2.08166 11.0041 2.76542 10.3204C3.44919 9.63659 4.32036 9.17094 5.26876 8.98229C6.21717 8.79364 7.20022 8.89046 8.0936 9.26051C8.98698 9.63056 9.75057 10.2572 10.2878 11.0612C10.825 11.8653 11.1118 12.8105 11.1118 13.7775C11.1118 15.0742 10.5967 16.3178 9.67977 17.2347C8.76287 18.1516 7.51929 18.6667 6.22259 18.6667ZM6.22259 9.77729C5.43142 9.77729 4.65802 10.0119 4.00018 10.4514C3.34235 10.891 2.82963 11.5158 2.52686 12.2467C2.22409 12.9776 2.14487 13.782 2.29922 14.5579C2.45357 15.3339 2.83456 16.0467 3.394 16.6061C3.95344 17.1656 4.66622 17.5465 5.44219 17.7009C6.21816 17.8552 7.02247 17.776 7.75342 17.4733C8.48437 17.1705 9.10912 16.6578 9.54867 15.9999C9.98822 15.3421 10.2228 14.5687 10.2228 13.7775C10.2228 12.7166 9.80138 11.6991 9.05119 10.9489C8.301 10.1987 7.28352 9.77729 6.22259 9.77729ZM8.00048 14.6665V15.1109C8.00048 15.4646 7.85999 15.8037 7.60993 16.0538C7.35987 16.3039 7.02071 16.4444 6.66707 16.4444V16.8888C6.66707 17.0067 6.62024 17.1198 6.53688 17.2031C6.45353 17.2865 6.34048 17.3333 6.22259 17.3333C6.10471 17.3333 5.99166 17.2865 5.90831 17.2031C5.82495 17.1198 5.77812 17.0067 5.77812 16.8888V16.4444C5.42448 16.4444 5.08532 16.3039 4.83526 16.0538C4.5852 15.8037 4.44471 15.4646 4.44471 15.1109C4.44471 14.9931 4.49154 14.88 4.57489 14.7966C4.65825 14.7133 4.7713 14.6665 4.88918 14.6665C5.00706 14.6665 5.12012 14.7133 5.20347 14.7966C5.28683 14.88 5.33365 14.9931 5.33365 15.1109C5.33365 15.2288 5.38048 15.3419 5.46384 15.4252C5.54719 15.5086 5.66024 15.5554 5.77812 15.5554V14.222C5.42448 14.222 5.08532 14.0815 4.83526 13.8314C4.5852 13.5814 4.44471 13.2422 4.44471 12.8886V12.4441C4.44471 12.0905 4.5852 11.7513 4.83526 11.5012C5.08532 11.2512 5.42448 11.1107 5.77812 11.1107V10.6662C5.77812 10.5483 5.82495 10.4353 5.90831 10.3519C5.99166 10.2686 6.10471 10.2218 6.22259 10.2218C6.34048 10.2218 6.45353 10.2686 6.53688 10.3519C6.62024 10.4353 6.66707 10.5483 6.66707 10.6662V11.1107C7.02071 11.1107 7.35987 11.2512 7.60993 11.5012C7.85999 11.7513 8.00048 12.0905 8.00048 12.4441C8.00048 12.562 7.95365 12.675 7.8703 12.7584C7.78694 12.8418 7.67389 12.8886 7.55601 12.8886C7.43813 12.8886 7.32507 12.8418 7.24172 12.7584C7.15836 12.675 7.11154 12.562 7.11154 12.4441C7.11154 12.3262 7.06471 12.2132 6.98135 12.1298C6.898 12.0465 6.78495 11.9996 6.66707 11.9996V13.3331C7.02071 13.3331 7.35987 13.4735 7.60993 13.7236C7.85999 13.9737 8.00048 14.3128 8.00048 14.6665Z" fill="white"/>
<path d="M5.72988 6.52534C5.87491 6.6165 6.0454 6.66579 6.22015 6.66706C6.39489 6.66579 6.56538 6.6165 6.71042 6.52534L9.38464 4.85797C9.48191 4.79675 9.56532 4.71819 9.63008 4.62678C9.69485 4.53537 9.73969 4.43291 9.76205 4.32526C9.78441 4.21762 9.78383 4.10691 9.76037 3.99947C9.73691 3.89203 9.69102 3.78998 9.62532 3.69915C9.49323 3.51776 9.28999 3.39238 9.05969 3.35024C8.8294 3.3081 8.59062 3.35259 8.39518 3.47406L6.22015 4.82462L4.03621 3.46572C3.8388 3.34846 3.60004 3.30844 3.37138 3.3543C3.14272 3.40016 2.94249 3.52821 2.81385 3.71086C2.68521 3.89351 2.63847 4.11613 2.68371 4.33071C2.72894 4.54529 2.86253 4.73465 3.05566 4.85797L5.72988 6.52534Z" fill="white"/>
<path d="M5.72988 3.19061C5.87491 3.28177 6.0454 3.33106 6.22015 3.33233C6.39489 3.33106 6.56538 3.28177 6.71042 3.19061L9.38464 1.52324C9.48191 1.46203 9.56532 1.38346 9.63008 1.29205C9.69485 1.20064 9.73969 1.09818 9.76205 0.990536C9.78441 0.882892 9.78383 0.77218 9.76037 0.664742C9.73691 0.557304 9.69102 0.455249 9.62532 0.364425C9.49323 0.183027 9.28999 0.057656 9.05969 0.0155158C8.8294 -0.0266245 8.59062 0.0178654 8.39518 0.139331L6.22015 1.4899L4.03621 0.130994C3.8388 0.0137319 3.60004 -0.0262846 3.37138 0.0195722C3.14272 0.065429 2.94249 0.193486 2.81385 0.376136C2.68521 0.558785 2.63847 0.781397 2.68371 0.995979C2.72894 1.21056 2.86253 1.39992 3.05566 1.52324L5.72988 3.19061Z" fill="white"/>
</svg>
