<svg width="21" height="21" viewBox="0 0 21 21" fill="none" xmlns="http://www.w3.org/2000/svg">
<path d="M8.56228 14.4845V11.6245L7.45117 11.7178V14.4845H8.56228Z" fill="white"/>
<path d="M8.56228 3.36224V2.73779H7.45117V3.6489L8.56228 3.36224Z" fill="white"/>
<path d="M4.12217 4.85121C2.97995 9.60676 4.80218 11.6023 4.80218 11.6023L10.9444 11.089C11.1955 10.829 11.4711 10.5934 11.7666 10.3823C10.3422 8.13788 10.9133 3.1001 10.9133 3.1001L4.1244 4.85121H4.12217Z" fill="white"/>
<path d="M4.63556 14.8178L3.92889 12.3912L0.5 11.6045C0.5 14.4889 1.14444 17.86 4.19111 18.7378H10.6422C9.82222 17.7423 9.32667 16.4689 9.32667 15.0823C9.32667 14.9934 9.32889 14.9067 9.33333 14.82H4.63556V14.8178Z" fill="white"/>
<path d="M9.16006 0.5H6.85339C6.57725 0.5 6.35339 0.723858 6.35339 1V1.90444C6.35339 2.18059 6.57725 2.40444 6.85339 2.40444H9.16006C9.4362 2.40444 9.66006 2.18059 9.66006 1.90444V1C9.66006 0.723858 9.4362 0.5 9.16006 0.5Z" fill="white"/>
<path d="M9.66003 15.0802C9.66003 18.0735 12.0867 20.5002 15.08 20.5002C18.0734 20.5002 20.5 18.0735 20.5 15.0802C20.5 12.0868 18.0734 9.66016 15.08 9.66016C12.0867 9.66016 9.66003 12.0868 9.66003 15.0802ZM18.3423 18.1246L18.1245 18.3424C17.9845 18.4824 17.7978 18.5535 17.6134 18.5535C17.4289 18.5535 17.2445 18.4824 17.1023 18.3424L14.5 15.7402L14.0934 16.1468C13.9334 16.3068 13.7223 16.3957 13.4956 16.3957C13.2689 16.3957 13.0578 16.3068 12.8978 16.1468L11.8511 15.1002C11.6911 14.9402 11.6023 14.729 11.6023 14.5024C11.6023 14.2757 11.6911 14.0646 11.8511 13.9046L12.2578 13.4979L12.0645 13.3046C11.7823 13.0224 11.7823 12.5646 12.0645 12.2824L12.2823 12.0646C12.5645 11.7824 13.0223 11.7824 13.3045 12.0646L13.4978 12.2579L13.9045 11.8513C14.2245 11.5313 14.78 11.5313 15.1 11.8513L16.1467 12.8979C16.3067 13.0579 16.3956 13.269 16.3956 13.4957C16.3956 13.7224 16.3067 13.9335 16.1467 14.0935L15.74 14.5002L18.3423 17.1024C18.6245 17.3846 18.6245 17.8424 18.3423 18.1246Z" fill="white"/>
<path d="M15.5067 14.7378L14.7378 15.5067L17.34 18.1089C17.4911 18.26 17.7378 18.26 17.8911 18.1089L18.1089 17.8911C18.26 17.74 18.26 17.4933 18.1089 17.34L15.5067 14.7378Z" fill="white"/>
<path d="M12.3022 13.0687L12.4955 13.2621L13.2644 12.4932L13.0711 12.2999C12.9955 12.2243 12.8955 12.1865 12.7955 12.1865C12.6955 12.1865 12.5955 12.2243 12.52 12.2999L12.3022 12.5176C12.1511 12.6687 12.1511 12.9154 12.3022 13.0687Z" fill="white"/>
<path d="M15.9111 13.8599C16.1111 13.6599 16.1111 13.3355 15.9111 13.1355L14.8644 12.0888C14.7644 11.9888 14.6333 11.9399 14.5022 11.9399C14.3711 11.9399 14.24 11.9888 14.14 12.0888L12.0888 14.1399C11.8888 14.3399 11.8888 14.6644 12.0888 14.8644L13.1355 15.9111C13.3355 16.1111 13.66 16.1111 13.86 15.9111L15.9111 13.8599Z" fill="white"/>
</svg>
