<svg width="21" height="24" viewBox="0 0 21 24" fill="none" xmlns="http://www.w3.org/2000/svg">
<path d="M4.50422 2.29725C4.50422 1.53295 5.13364 0.858576 5.94289 0.858576C6.70719 0.858576 7.38156 1.53295 7.38156 2.29725V3.73592H13.1363V2.29725C13.1363 1.53295 13.7657 0.858576 14.5749 0.858576C15.3392 0.858576 16.0136 1.53295 16.0136 2.29725V3.73592H18.1716C19.3405 3.73592 20.3296 4.72501 20.3296 5.89393V8.05194H0.188199V5.89393C0.188199 4.72501 1.13233 3.73592 2.34621 3.73592H4.50422V2.29725ZM20.3296 9.49061V21.7193C20.3296 22.9332 19.3405 23.8773 18.1716 23.8773H2.34621C1.13233 23.8773 0.188199 22.9332 0.188199 21.7193V9.49061H20.3296Z" fill="#10293A"/>
</svg>
