<svg width="17" height="21" viewBox="0 0 17 21" fill="none" xmlns="http://www.w3.org/2000/svg">
<path d="M14.6895 14.2891C13.9347 13.6196 13.1499 13.4666 12.3876 13.3137C11.5777 13.1557 10.818 13.0103 10.1661 12.2355C9.85011 11.8644 9.62444 11.4256 9.47901 10.8965C9.61191 10.7987 9.73477 10.6834 9.85764 10.568C10.309 10.1167 10.6675 9.56253 10.8932 8.96074C10.8982 8.95573 10.8982 8.95573 10.9057 8.94821C10.9057 8.94319 10.9108 8.93567 10.9108 8.92313C10.9484 8.83788 10.9709 8.75764 10.991 8.69245C11.0211 8.60719 11.0462 8.53949 11.0813 8.47931C11.1364 8.36397 11.2041 8.27872 11.2894 8.206C11.4123 8.10821 11.5201 7.96278 11.6555 7.78475C11.8686 7.51144 12.1118 7.18798 12.0767 6.77425C12.0341 6.28029 11.6204 5.7462 11.0612 5.70358V4.54012L11.7257 4.02359C11.9639 3.85308 12.0918 3.62741 12.0918 3.38419C12.0918 3.14097 11.9639 2.9153 11.7257 2.73978L9.24833 0.881761C8.5663 0.375257 7.46554 0.370242 6.78853 0.881761L4.29863 2.73978C4.07296 2.9153 3.94508 3.14097 3.94508 3.38419C3.94508 3.62741 4.07296 3.85308 4.29863 4.02359L4.98066 4.54012V4.96639V5.70859C4.43153 5.76877 4.04789 6.30536 4.00777 6.77425C3.97016 7.1955 4.2209 7.51646 4.43404 7.80231L4.47165 7.84995C4.58197 7.99538 4.67977 8.11824 4.78759 8.2035C4.84275 8.25114 4.88538 8.30129 4.93302 8.36899C4.93803 8.38153 4.94555 8.39406 4.95057 8.39908C5.00573 8.48433 5.04084 8.59466 5.07343 8.69245C5.11606 8.80779 5.1637 8.94319 5.21887 9.0811C5.22388 9.08612 5.22388 9.09364 5.2314 9.10618C5.38937 9.4848 5.68776 10.044 6.21683 10.568C6.39235 10.7435 6.58291 10.904 6.78351 11.0419C6.65062 11.4983 6.42996 11.8945 6.14411 12.2355C5.48716 13.0078 4.7249 13.1557 3.92252 13.3137C3.15524 13.4666 2.37041 13.6171 1.61567 14.2891C0.921107 14.9159 0.392036 15.8587 0.0384861 17.0899C0.020934 17.145 0.0384861 17.2052 0.0811127 17.2428C1.90152 18.9955 4.17828 20.0863 6.66817 20.4022C7.1496 20.4699 7.63604 20.5 8.1601 20.5C8.67162 20.5 9.1706 20.4624 9.63447 20.4022C12.1244 20.0913 14.4137 19.0031 16.2391 17.2428C16.2817 17.2052 16.2942 17.145 16.2817 17.0899C15.9206 15.8587 15.384 14.9159 14.6895 14.2891ZM6.99414 3.11088C7.0493 3.0507 7.14709 3.0507 7.20727 3.11088C7.38279 3.2864 7.61598 3.39171 7.8592 3.41428V2.69464H7.57336C7.4881 2.69464 7.4204 2.62193 7.4204 2.54169C7.4204 2.45644 7.4881 2.38873 7.57336 2.38873H7.8592V2.04772C7.6887 1.98754 7.57336 1.82957 7.57336 1.63901C7.57336 1.39579 7.76894 1.20021 8.01216 1.20021C8.25037 1.20021 8.45096 1.39579 8.45096 1.63901C8.45096 1.82707 8.3281 1.98504 8.16511 2.04772V2.38873H8.48105C8.5663 2.38873 8.634 2.45644 8.634 2.54169C8.634 2.62193 8.5663 2.69464 8.48105 2.69464H8.16511V3.41428C8.40833 3.3892 8.63902 3.2864 8.81705 3.11088C8.87221 3.0507 8.97 3.0507 9.03018 3.11088C9.09036 3.16604 9.09036 3.26383 9.03018 3.32401C8.75687 3.59732 8.3958 3.74526 8.01467 3.74526C7.63353 3.74526 7.26494 3.59983 6.99915 3.32401C6.93396 3.26383 6.93396 3.16604 6.99414 3.11088ZM5.27654 4.90621V4.58275H10.7428V4.90621C10.4444 5.22967 9.31854 6.34799 8.00213 6.34799C6.70327 6.35049 5.57492 5.22967 5.27654 4.90621ZM6.03379 15.5177L5.59498 13.0955C5.82065 12.9626 6.0388 12.7971 6.2394 12.5715L7.91437 14.2389L6.03379 15.5177ZM8.15257 20.1941C7.6887 20.1941 7.26494 20.169 6.84369 20.1139L7.60595 16.0217C7.61097 15.9741 7.60094 15.9239 7.56333 15.8888L6.949 15.2745L8.15508 14.452L9.36116 15.267L8.74684 15.8888C8.70923 15.9264 8.69168 15.9741 8.70421 16.0217L9.46648 20.1063C9.04523 20.1715 8.60893 20.1941 8.15257 20.1941ZM10.2689 15.5177L8.38828 14.2389L10.0557 12.5715C10.2638 12.7971 10.482 12.9601 10.7001 13.0955L10.2689 15.5177Z" fill="white"/>
</svg>
