<svg width="24" height="24" viewBox="0 0 24 24" fill="none" xmlns="http://www.w3.org/2000/svg">
<path fill-rule="evenodd" clip-rule="evenodd" d="M0.5 1.35185C0.5 0.881383 0.881391 0.5 1.35185 0.5H9.87037C10.3408 0.5 10.7222 0.881391 10.7222 1.35185V22.6481C10.7222 23.1186 10.3408 23.5 9.87037 23.5H1.35185C0.881391 23.5 0.5 23.1186 0.5 22.6481V1.35185ZM13.2778 11.5741C13.2778 11.1036 13.6592 10.7222 14.1296 10.7222H22.6481C23.1186 10.7222 23.5 11.1036 23.5 11.5741V22.6481C23.5 23.1186 23.1186 23.5 22.6481 23.5H14.1296C13.6592 23.5 13.2778 23.1186 13.2778 22.6481V11.5741ZM14.1296 0.5C13.6592 0.5 13.2778 0.881391 13.2778 1.35185V7.31482C13.2778 7.78529 13.6592 8.16667 14.1296 8.16667H22.6481C23.1186 8.16667 23.5 7.78529 23.5 7.31482V1.35185C23.5 0.881391 23.1186 0.5 22.6481 0.5H14.1296Z" fill="white"/>
</svg>
