<svg width="12" height="13" viewBox="0 0 12 13" fill="none" xmlns="http://www.w3.org/2000/svg">
<path d="M11.0391 1.01562L11.4844 1.46094C12 1.97656 12 2.79688 11.4844 3.3125L10.7812 4.01562L8.48438 1.71875L9.1875 1.01562C9.70312 0.5 10.5234 0.5 11.0391 1.01562ZM4.03125 6.17188L7.94531 2.25781L10.2422 4.55469L6.32812 8.46875C6.1875 8.60938 6 8.72656 5.8125 8.79688L3.72656 9.47656C3.53906 9.54688 3.30469 9.5 3.16406 9.33594C3 9.19531 2.95312 8.96094 3.02344 8.77344L3.70312 6.6875C3.77344 6.5 3.89062 6.3125 4.03125 6.17188ZM2.25 2H4.5C4.89844 2 5.25 2.35156 5.25 2.75C5.25 3.17188 4.89844 3.5 4.5 3.5H2.25C1.82812 3.5 1.5 3.85156 1.5 4.25V10.25C1.5 10.6719 1.82812 11 2.25 11H8.25C8.64844 11 9 10.6719 9 10.25V8C9 7.60156 9.32812 7.25 9.75 7.25C10.1484 7.25 10.5 7.60156 10.5 8V10.25C10.5 11.4922 9.49219 12.5 8.25 12.5H2.25C1.00781 12.5 0 11.4922 0 10.25V4.25C0 3.00781 1.00781 2 2.25 2Z" fill="white"/>
</svg>
