<svg width="15" height="20" viewBox="0 0 15 20" fill="none" xmlns="http://www.w3.org/2000/svg">
<path d="M10.7477 1.49533H9.90654V1.40187C9.90654 0.629009 9.27753 0 8.50467 0H6.26168C5.48864 0 4.85981 0.629009 4.85981 1.40187V1.49533H4.01869C3.86389 1.49533 3.73832 1.6209 3.73832 1.7757V2.71028C3.73832 2.86508 3.86389 2.99065 4.01869 2.99065H10.7477C10.9025 2.99065 11.028 2.86508 11.028 2.71028V1.7757C11.028 1.6209 10.9025 1.49533 10.7477 1.49533ZM8.13084 2.05607H6.63551C6.48071 2.05607 6.35514 1.9305 6.35514 1.7757C6.35514 1.6209 6.48071 1.49533 6.63551 1.49533H8.13084C8.28564 1.49533 8.41121 1.6209 8.41121 1.7757C8.41121 1.9305 8.28564 2.05607 8.13084 2.05607ZM2.05607 17.9439H12.7103V3.5514H2.05607V17.9439ZM7.75701 5.23364H11.4953C11.6501 5.23364 11.7757 5.35921 11.7757 5.51402C11.7757 5.66882 11.6501 5.79439 11.4953 5.79439H7.75701C7.60221 5.79439 7.47664 5.66882 7.47664 5.51402C7.47664 5.35921 7.60221 5.23364 7.75701 5.23364ZM7.75701 6.72897H11.4953C11.6501 6.72897 11.7757 6.85454 11.7757 7.00935C11.7757 7.16415 11.6501 7.28972 11.4953 7.28972H7.75701C7.60221 7.28972 7.47664 7.16415 7.47664 7.00935C7.47664 6.85454 7.60221 6.72897 7.75701 6.72897ZM7.75701 9.71963H11.4953C11.6501 9.71963 11.7757 9.8452 11.7757 10C11.7757 10.1548 11.6501 10.2804 11.4953 10.2804H7.75701C7.60221 10.2804 7.47664 10.1548 7.47664 10C7.47664 9.8452 7.60221 9.71963 7.75701 9.71963ZM7.75701 11.215H11.4953C11.6501 11.215 11.7757 11.3405 11.7757 11.4953C11.7757 11.6501 11.6501 11.7757 11.4953 11.7757H7.75701C7.60221 11.7757 7.47664 11.6501 7.47664 11.4953C7.47664 11.3405 7.60221 11.215 7.75701 11.215ZM7.75701 14.2056H11.4953C11.6501 14.2056 11.7757 14.3312 11.7757 14.486C11.7757 14.6408 11.6501 14.7664 11.4953 14.7664H7.75701C7.60221 14.7664 7.47664 14.6408 7.47664 14.486C7.47664 14.3312 7.60221 14.2056 7.75701 14.2056ZM7.75701 15.7009H11.4953C11.6501 15.7009 11.7757 15.8265 11.7757 15.9813C11.7757 16.1361 11.6501 16.2617 11.4953 16.2617H7.75701C7.60221 16.2617 7.47664 16.1361 7.47664 15.9813C7.47664 15.8265 7.60221 15.7009 7.75701 15.7009ZM6.33798 5.34826C6.44751 5.45779 6.44751 5.63521 6.33798 5.74471L5.06168 7.02101C5.00692 7.07578 4.93518 7.10314 4.86344 7.10314C4.7917 7.10314 4.71996 7.07578 4.6652 7.02101L4.03069 6.38651C3.92116 6.27697 3.92116 6.09955 4.03069 5.99006C4.14022 5.88056 4.31765 5.88052 4.42714 5.99006L4.8634 6.42632L5.94146 5.34826C6.05099 5.23873 6.22849 5.23873 6.33798 5.34826ZM2.99065 4.76636C2.99065 4.61155 3.11622 4.48598 3.27103 4.48598H5.22688C5.38168 4.48598 5.50725 4.61155 5.50725 4.76636C5.50725 4.92116 5.38168 5.04673 5.22688 5.04673H3.5514V7.47664H5.98131V7.11705C5.98131 6.96224 6.10688 6.83667 6.26168 6.83667C6.41649 6.83667 6.54206 6.96224 6.54206 7.11705V7.75701C6.54206 7.91181 6.41649 8.03738 6.26168 8.03738H3.27103C3.11622 8.03738 2.99065 7.91181 2.99065 7.75701V4.76636ZM6.33798 10.2307L5.06168 11.507C5.00692 11.5618 4.93518 11.5892 4.86344 11.5892C4.7917 11.5892 4.71996 11.5618 4.6652 11.507L4.03069 10.8725C3.92116 10.763 3.92116 10.5856 4.03069 10.4761C4.14022 10.3666 4.31765 10.3665 4.42714 10.4761L4.8634 10.9123L5.94146 9.83428C6.05099 9.72475 6.22841 9.72475 6.33791 9.83428C6.4474 9.94381 6.44751 10.1212 6.33798 10.2307ZM2.99065 9.25234C2.99065 9.09753 3.11622 8.97196 3.27103 8.97196H5.22688C5.38168 8.97196 5.50725 9.09753 5.50725 9.25234C5.50725 9.40714 5.38168 9.53271 5.22688 9.53271H3.5514V11.9626H5.98131V11.603C5.98131 11.4482 6.10688 11.3227 6.26168 11.3227C6.41649 11.3227 6.54206 11.4482 6.54206 11.603V12.243C6.54206 12.3978 6.41649 12.5234 6.26168 12.5234H3.27103C3.11622 12.5234 2.99065 12.3978 2.99065 12.243V9.25234ZM6.33798 14.7167L5.06168 15.993C5.00692 16.0478 4.93518 16.0751 4.86344 16.0751C4.7917 16.0751 4.71996 16.0478 4.6652 15.993L4.03069 15.3585C3.92116 15.249 3.92116 15.0716 4.03069 14.9621C4.14022 14.8526 4.31765 14.8525 4.42714 14.9621L4.8634 15.3983L5.94146 14.3203C6.05099 14.2107 6.22841 14.2107 6.33791 14.3203C6.4474 14.4298 6.44751 14.6072 6.33798 14.7167ZM2.99065 13.7383C2.99065 13.5835 3.11622 13.4579 3.27103 13.4579H5.22688C5.38168 13.4579 5.50725 13.5835 5.50725 13.7383C5.50725 13.8931 5.38168 14.0187 5.22688 14.0187H3.5514V16.4486H5.98131V16.089C5.98131 15.9342 6.10688 15.8086 6.26168 15.8086C6.41649 15.8086 6.54206 15.9342 6.54206 16.089V16.729C6.54206 16.8838 6.41649 17.0093 6.26168 17.0093H3.27103C3.11622 17.0093 2.99065 16.8838 2.99065 16.729V13.7383ZM13.7383 1.49533H11.5402C11.5701 1.58131 11.5888 1.6785 11.5888 1.7757V2.71028C11.5888 2.80748 11.5701 2.90467 11.5402 2.99065H12.9907C13.1439 2.99065 13.271 3.11776 13.271 3.27103V18.2243C13.271 18.3776 13.1439 18.5047 12.9907 18.5047H1.7757C1.62243 18.5047 1.49533 18.3776 1.49533 18.2243V3.27103C1.49533 3.11776 1.62243 2.99065 1.7757 2.99065H3.22617C3.19626 2.90467 3.17757 2.80748 3.17757 2.71028V1.7757C3.17757 1.6785 3.19626 1.58131 3.22617 1.49533H1.02804C0.459813 1.49533 0 1.95514 0 2.52336V18.972C0 19.5402 0.459813 20 1.02804 20H13.7383C14.3065 20 14.7664 19.5402 14.7664 18.972V2.52336C14.7664 1.95514 14.3065 1.49533 13.7383 1.49533Z" fill="white"/>
</svg>
