<svg width="16" height="21" viewBox="0 0 16 21" fill="none" xmlns="http://www.w3.org/2000/svg">
<path d="M2.89633 0.137163H9.27592V5.24083C9.27592 5.95853 9.83413 6.51675 10.5518 6.51675H15.6555V18C15.6555 19.4354 14.4992 20.5518 13.1037 20.5518H2.89633C1.46093 20.5518 0.344499 19.4354 0.344499 18V2.689C0.344499 1.29346 1.46093 0.137163 2.89633 0.137163ZM10.5518 0.137163L15.6555 5.24083H10.5518V0.137163ZM12.5056 11.3413H12.4657C12.8644 10.9825 12.8644 10.3844 12.4657 9.98565C12.1069 9.6268 11.5088 9.6268 11.1499 9.98565L6.68421 14.4514L4.81021 12.5774C4.45136 12.1786 3.85327 12.1786 3.49442 12.5774C3.09569 12.9362 3.09569 13.5343 3.49442 13.8931L6.04625 16.445C6.4051 16.8437 7.00319 16.8437 7.40191 16.445L12.5056 11.3413Z" fill="white"/>
</svg>
