<svg width="18" height="24" viewBox="0 0 18 24" fill="none" xmlns="http://www.w3.org/2000/svg">
<path d="M2.93568 0.859649H10.1287V6.61404C10.1287 7.42325 10.758 8.05263 11.5673 8.05263H17.3216V21C17.3216 22.6184 16.0179 23.8772 14.4444 23.8772H2.93568C1.31726 23.8772 0.058485 22.6184 0.058485 21V3.73684C0.058485 2.16338 1.31726 0.859649 2.93568 0.859649ZM11.5673 0.859649L17.3216 6.61404H11.5673V0.859649ZM13.7701 13.4923H13.7252C14.1747 13.0877 14.1747 12.4134 13.7252 11.9638C13.3205 11.5592 12.6462 11.5592 12.2416 11.9638L7.20651 16.9989L5.09357 14.886C4.68897 14.4364 4.01463 14.4364 3.61002 14.886C3.16046 15.2906 3.16046 15.9649 3.61002 16.3695L6.48721 19.2467C6.89182 19.6963 7.56616 19.6963 8.01572 19.2467L13.7701 13.4923Z" fill="#10293A"/>
</svg>
