<svg width="17" height="20" viewBox="0 0 17 20" fill="none" xmlns="http://www.w3.org/2000/svg">
<path d="M13.8462 0H3.07692C1.37692 0 0 1.37692 0 3.07692V16.9231C0 18.6231 1.37692 20 3.07692 20H13.8462C15.5462 20 16.9231 18.6231 16.9231 16.9231V3.07692C16.9231 1.37692 15.5462 0 13.8462 0ZM12.3077 15.3846H4.61538C3.6 15.3846 3.6 13.8462 4.61538 13.8462H12.3077C13.3231 13.8462 13.3231 15.3846 12.3077 15.3846ZM12.3077 10.7692H4.61538C3.6 10.7692 3.6 9.23077 4.61538 9.23077H12.3077C13.3231 9.23077 13.3231 10.7692 12.3077 10.7692ZM12.3077 6.15385H4.61538C3.6 6.15385 3.6 4.61538 4.61538 4.61538H12.3077C13.3231 4.61538 13.3231 6.15385 12.3077 6.15385Z" fill="white"/>
</svg>
