<svg width="21" height="30" viewBox="0 0 21 30" fill="none" xmlns="http://www.w3.org/2000/svg">
<path d="M8.75639 10.3967C8.75639 10.3967 9.25515 8.44468 10.5647 8.24026C11.8739 8.03649 12.6703 8.85188 13.7475 8.01286C14.8225 7.17548 15.2943 5.89677 15.2943 5.89677L13.574 0C13.574 0 12.0679 2.37695 11.2951 3.43516C10.5201 4.49469 9.43168 3.24583 8.23402 4.44776C6.4956 6.1911 8.75639 10.3967 8.75639 10.3967Z" fill="#10293A"/>
<path d="M8.36855 12.0728L6.45228 6.84775C6.35352 6.57803 6.05525 6.44055 5.78553 6.53931C5.51646 6.63808 5.37799 6.93569 5.47676 7.20574L7.39532 12.4371C3.98378 14.0029 2.14365 17.7642 2.97873 21.4104L17.8508 16.1807C16.1589 12.6845 12.1348 10.9044 8.36855 12.0728Z" fill="#10293A"/>
<path d="M4.61612 24.6924C5.24186 24.3892 5.97292 24.2366 6.64788 24.2366C7.37796 24.2366 8.1087 24.3892 8.73411 24.6924C9.30801 24.9427 9.9846 25.0943 10.714 25.0943C11.3939 25.0943 12.0702 24.9427 12.6953 24.6924C13.321 24.3892 13.9999 24.2366 14.7293 24.2366C15.4581 24.2366 16.1376 24.3892 16.7614 24.6924C16.7808 24.6999 16.8001 24.7055 16.8195 24.7127C18.3673 22.8437 19.0255 20.3089 18.4395 17.8306L3.552 23.0655C3.83616 23.6627 4.19382 24.2051 4.6007 24.6986C4.60595 24.6956 4.6112 24.694 4.61612 24.6924Z" fill="#10293A"/>
<path d="M20.7225 29.5991C20.1513 29.8505 19.4727 30.0001 18.7433 30.0001C18.0664 30.0001 17.3878 29.8505 16.762 29.5991C16.1383 29.296 15.4584 29.1444 14.73 29.1444C14.0002 29.1444 13.3216 29.296 12.6959 29.5991C12.0711 29.8505 11.3945 30.0001 10.7147 30.0001C9.98524 30.0001 9.30864 29.8505 8.73475 29.5991C8.10901 29.296 7.3786 29.1444 6.64852 29.1444C5.97323 29.1444 5.24249 29.296 4.61675 29.5991C4.0422 29.8505 3.36528 30.0001 2.63552 30.0001C1.95794 30.0001 0.655273 29.5991 0.655273 29.5991V26.728C0.655273 26.728 1.95794 27.131 2.63552 27.131C3.36528 27.131 4.0422 26.98 4.61675 26.728C5.24249 26.4255 5.97356 26.2769 6.64852 26.2769C7.3786 26.2769 8.10934 26.4255 8.73475 26.728C9.30864 26.98 9.98524 27.131 10.7147 27.131C11.3945 27.131 12.0708 26.98 12.6959 26.728C13.3216 26.4255 14.0005 26.2769 14.73 26.2769C15.4587 26.2769 16.1383 26.4255 16.762 26.728C17.3878 26.98 18.0664 27.131 18.7433 27.131C19.473 27.131 20.1513 26.98 20.7225 26.728C20.7225 28.1887 20.7225 28.1887 20.7225 29.5991Z" fill="#10293A"/>
</svg>
