<svg width="22" height="24" viewBox="0 0 22 24" fill="none" xmlns="http://www.w3.org/2000/svg">
<path d="M4.61215 0.539378C4.91282 0.499795 5.25143 0.499887 5.70849 0.500014L9.89372 0.500025C11.4509 0.499991 12.735 0.499957 13.7514 0.636599C14.8184 0.78005 15.7607 1.09281 16.5153 1.84734C17.2698 2.60186 17.5825 3.5442 17.726 4.6112C17.7718 4.95224 17.8023 5.32342 17.8225 5.72497C16.9204 5.55495 15.9526 5.81899 15.2545 6.51709C14.5462 7.2255 14.2848 8.21163 14.4703 9.12502H9.23753C7.64967 9.12502 6.36249 10.4122 6.36249 12C6.36249 13.5878 7.64967 14.875 9.23753 14.875H14.4703C14.2848 15.7884 14.5462 16.7746 15.2545 17.483C15.9526 18.181 16.9204 18.4451 17.8225 18.2751C17.8023 18.6766 17.7718 19.0478 17.726 19.3889C17.5825 20.4558 17.2698 21.3981 16.5153 22.1526C15.7607 22.9072 14.8184 23.22 13.7514 23.3634C12.735 23.5001 11.4509 23.5 9.89372 23.5H5.70847C5.25142 23.5001 4.91282 23.5002 4.61215 23.4607C2.54797 23.1889 0.923683 21.5645 0.651939 19.5004C0.612344 19.1997 0.612436 18.8611 0.612563 18.404V5.59595C0.612436 5.13889 0.612344 4.80028 0.651939 4.4996C0.923683 2.43544 2.54797 0.811134 4.61215 0.539378Z" fill="white"/>
<path d="M16.4743 7.73673C16.9234 7.28763 17.6516 7.28763 18.1007 7.73673L21.5507 11.1867C21.9997 11.6358 21.9997 12.364 21.5507 12.8131L18.1007 16.263C17.6516 16.7121 16.9234 16.7121 16.4743 16.263C16.0253 15.814 16.0253 15.0858 16.4743 14.6367L17.9612 13.1499H9.23752C8.60238 13.1499 8.08752 12.635 8.08752 11.9999C8.08752 11.3647 8.60238 10.8499 9.23752 10.8499H17.9612L16.4743 9.36308C16.0253 8.91397 16.0253 8.18583 16.4743 7.73673Z" fill="white"/>
</svg>
