<svg width="127" height="30" viewBox="0 0 127 30" fill="none" xmlns="http://www.w3.org/2000/svg">
<path d="M13.7519 5.49728H11.9036L6.87012 11.7866L1.84831 5.49728H0V17.297H1.96455V8.79887L6.87012 14.9487L11.7873 8.79887V17.297H13.7519V5.49728ZM24.6208 13.8094L19.9826 7.78747C20.4709 7.57821 20.9824 7.47358 21.5287 7.47358C22.6098 7.47358 23.5398 7.85722 24.307 8.62449C25.0742 9.39176 25.4578 10.3218 25.4578 11.4029C25.4462 12.2981 25.1672 13.1002 24.6208 13.8094ZM21.5171 15.3323C20.436 15.3323 19.506 14.9487 18.7388 14.1814C17.9716 13.4141 17.588 12.4841 17.588 11.4029C17.588 10.5078 17.867 9.70565 18.4133 8.98488L23.0515 15.0184C22.5633 15.2277 22.0518 15.3323 21.5171 15.3323ZM21.5171 5.49728C19.8896 5.49728 18.5063 6.07854 17.3439 7.22945C16.193 8.38036 15.6234 9.76378 15.6234 11.3913C15.6234 13.0189 16.193 14.4023 17.3439 15.5648C18.4947 16.7157 19.8896 17.2854 21.5171 17.2854C23.1445 17.2854 24.5279 16.7157 25.6787 15.5648C26.8295 14.4139 27.4107 13.0189 27.4107 11.3913C27.4107 9.76378 26.8295 8.38036 25.6787 7.22945C24.5279 6.07854 23.1445 5.49728 21.5171 5.49728ZM38.2681 13.8094L33.6299 7.78747C34.1181 7.57821 34.6412 7.47358 35.176 7.47358C36.257 7.47358 37.187 7.85722 37.9542 8.62449C38.7215 9.39176 39.1051 10.3218 39.1051 11.4029C39.1051 12.2981 38.8261 13.1002 38.2681 13.8094ZM35.176 15.3323C34.0949 15.3323 33.1649 14.9487 32.3977 14.1814C31.6305 13.4141 31.2469 12.4841 31.2469 11.4029C31.2469 10.5078 31.5258 9.70565 32.0722 8.98488L36.7104 15.0184C36.2222 15.2277 35.7107 15.3323 35.176 15.3323ZM35.176 5.49728C33.5485 5.49728 32.1652 6.07854 31.0027 7.22945C29.8519 8.38036 29.2823 9.76378 29.2823 11.3913C29.2823 13.0189 29.8519 14.4023 31.0027 15.5648C32.1536 16.7157 33.5485 17.2854 35.176 17.2854C36.8034 17.2854 38.1867 16.7157 39.3376 15.5648C40.4884 14.4139 41.0696 13.0189 41.0696 11.3913C41.0696 9.76378 40.4884 8.38036 39.3376 7.22945C38.1867 6.07854 36.7918 5.49728 35.176 5.49728ZM46.0798 11.868V7.45033H49.0325C49.6369 7.45033 50.16 7.67121 50.5901 8.10135C51.0203 8.53149 51.2411 9.05463 51.2411 9.67077C51.2411 10.2753 51.0203 10.7984 50.5901 11.2286C50.16 11.6587 49.6369 11.8796 49.0325 11.8796H46.0798V11.868ZM44.1036 7.45033V17.2737H46.0682V13.8326H48.2187L52.7174 19.5407L55.9723 20.5056L50.4971 13.5536C51.2876 13.2514 51.9386 12.7515 52.4152 12.0423C52.9151 11.3216 53.1708 10.531 53.1708 9.64752C53.1708 8.49661 52.7639 7.50846 51.9502 6.69469C51.1365 5.88091 50.1484 5.4624 48.9976 5.4624H43.72L42.8947 7.42708H44.1036V7.45033ZM65.551 5.49728H56.4024L55.5771 7.46196H56.7628V17.297H58.7273V12.3911H61.9706L62.5518 10.4264H58.7273V7.47358H64.9697L65.551 5.49728ZM67.4109 5.49728V17.297H69.3755V5.49728H67.4109ZM81.0698 5.49728H78.7449L77.9311 7.46196H79.1052V13.7745L73.0837 5.49728H71.247V17.297H73.2116V9.01975L79.2331 17.297H81.0698V5.49728ZM88.0445 15.3323H86.08V7.47358H88.0445C89.1256 7.47358 90.0556 7.85722 90.8228 8.62449C91.59 9.39176 91.9736 10.3218 91.9736 11.4029C91.9736 12.4841 91.59 13.4141 90.8228 14.1814C90.0556 14.9487 89.1256 15.3323 88.0445 15.3323ZM88.0445 5.49728H83.7551L82.9297 7.46196H84.1038V17.297H88.0329C89.6603 17.297 91.0437 16.7273 92.2061 15.5764C93.357 14.4255 93.9266 13.0305 93.9266 11.4029C93.9266 9.7754 93.357 8.39199 92.2061 7.24108C91.0553 6.07855 89.6603 5.49728 88.0445 5.49728Z" fill="white"/>
<path d="M4.63691 23.4741V27.7108H3.86666V24.9223L2.55723 26.7556H2.09508L0.785656 24.9223V27.7108H0V23.4741H0.6162L2.32616 25.8621L4.03611 23.4741H4.63691Z" fill="white"/>
<path d="M8.31873 23.4741L10.0133 27.7108H9.22762L8.8425 26.7556H6.77823L6.3931 27.7108H5.59204L7.28659 23.4741H8.31873ZM7.05552 26.0469H8.5498L7.79496 24.1674L7.05552 26.0469Z" fill="white"/>
<path d="M14.8198 27.7108H14.2498L11.7388 24.799V27.7108H10.9531V23.4741H11.5231L14.0341 26.3858V23.4741H14.8198V27.7108Z" fill="white"/>
<path d="M18.486 23.4741L20.1805 27.7108H19.3949L19.0097 26.7556H16.9455L16.5603 27.7108H15.7593L17.4538 23.4741H18.486ZM17.2228 26.0469H18.717L17.9622 24.1674L17.2228 26.0469Z" fill="white"/>
<path d="M23.0306 25.3375H24.987C25.0024 25.3991 25.0024 25.4761 25.0024 25.584C25.0024 26.2156 24.8176 26.7394 24.4478 27.1554C24.0473 27.6022 23.5235 27.8332 22.8919 27.8332C22.2757 27.8332 21.752 27.6176 21.3206 27.1708C20.8893 26.724 20.6582 26.2002 20.6582 25.584C20.6582 24.9677 20.8739 24.4439 21.3206 24.0126C21.752 23.5812 22.2757 23.3501 22.8919 23.3501C23.2462 23.3501 23.5852 23.4271 23.9087 23.5966C24.2322 23.7661 24.494 23.9817 24.7097 24.2745L24.0627 24.7212C23.9241 24.5364 23.7546 24.3977 23.5543 24.2899C23.3541 24.182 23.1384 24.1358 22.9073 24.1358C22.5068 24.1358 22.1679 24.2745 21.8752 24.5672C21.5979 24.8445 21.4439 25.1988 21.4439 25.5994C21.4439 25.9999 21.5825 26.3389 21.8752 26.6316C22.1525 26.9243 22.5068 27.0629 22.9073 27.0629C23.2462 27.0629 23.5081 26.9705 23.7238 26.7856C23.9395 26.6008 24.0935 26.3697 24.1705 26.0924H23.046V25.3375H23.0306Z" fill="white"/>
<path d="M29.6084 24.1982H26.9741V25.215H29.1462V25.9545H26.9741V26.9713H29.6084V27.7108H26.1885V23.4741H29.6084V24.1982Z" fill="white"/>
<path d="M33.6444 27.6816C33.552 27.774 33.4287 27.8356 33.2901 27.8356C33.1515 27.8356 33.0282 27.7894 32.9358 27.6816C32.8434 27.5892 32.7817 27.4659 32.7817 27.3273C32.7817 27.1886 32.828 27.0653 32.9358 26.9729C33.0282 26.8805 33.1515 26.8188 33.2901 26.8188C33.4287 26.8188 33.552 26.8651 33.6444 26.9729C33.7368 27.0653 33.7985 27.1886 33.7985 27.3273C33.7985 27.4659 33.7522 27.5737 33.6444 27.6816Z" fill="white"/>
<path d="M38.8362 25.2491C39.021 25.3107 39.1597 25.3569 39.2829 25.3878C39.3908 25.434 39.5294 25.4802 39.6834 25.5726C39.8375 25.6497 39.9607 25.7267 40.0532 25.8191C40.1456 25.8962 40.2226 26.004 40.2842 26.1427C40.3459 26.2659 40.3767 26.42 40.3767 26.574C40.3767 26.8051 40.3305 27.0054 40.2226 27.1594C40.1302 27.3289 39.9915 27.4522 39.8067 27.5446C39.6372 27.637 39.437 27.6987 39.2367 27.7449C39.0364 27.7911 38.8054 27.8065 38.5589 27.8065C37.9427 27.8065 37.3727 27.6524 36.8181 27.3443L37.2186 26.7127C37.6962 26.9746 38.1429 27.0978 38.5897 27.0978C39.2213 27.0978 39.5448 26.9284 39.5448 26.5894C39.5448 26.497 39.514 26.42 39.4678 26.3429C39.4216 26.2659 39.3445 26.2043 39.2213 26.1581C39.1135 26.0964 39.0056 26.0656 38.9132 26.0194C38.8208 25.9886 38.6821 25.9424 38.5127 25.8962C38.4973 25.8962 38.4973 25.8962 38.4973 25.8962H38.4819H38.4665C38.2662 25.8345 38.1121 25.7883 38.0043 25.7575C37.8965 25.7267 37.7578 25.6651 37.6038 25.588C37.4343 25.511 37.3111 25.434 37.2341 25.3415C37.1416 25.2645 37.08 25.1567 37.003 25.018C36.9414 24.8794 36.9105 24.7407 36.9105 24.5712C36.9105 24.2323 37.0492 23.955 37.3419 23.7393C37.65 23.5236 38.0813 23.4004 38.6513 23.4004C39.2059 23.4004 39.7451 23.5545 40.2842 23.8626L39.8991 24.4634C39.4524 24.2169 39.021 24.0937 38.6051 24.0937C38.3124 24.0937 38.0967 24.1399 37.9427 24.2169C37.7886 24.2939 37.7116 24.4018 37.7116 24.5404C37.7116 24.6175 37.727 24.6791 37.7732 24.7407C37.8194 24.8023 37.8657 24.8485 37.9119 24.8948C37.9581 24.941 38.0351 24.9718 38.1429 25.018C38.2508 25.0642 38.3432 25.095 38.4048 25.1259C38.4665 25.1413 38.5743 25.1875 38.7283 25.2183C38.79 25.2337 38.8208 25.2337 38.8362 25.2491Z" fill="white"/>
<path d="M45.1213 24.1982H42.4871V25.215H44.6592V25.9545H42.4871V26.9713H45.1213V27.7108H41.7014V23.4741H45.1213V24.1982Z" fill="white"/>
<path d="M49.3114 26.2472L50.4051 27.7108H49.4808L48.5103 26.4013H47.2317V27.7108H46.446V23.4741H48.6798C49.0957 23.4741 49.4346 23.6128 49.7273 23.9055C50.02 24.1982 50.1587 24.5371 50.1587 24.9377C50.1587 25.2304 50.0816 25.4923 49.9276 25.7234C49.7735 25.9545 49.5733 26.1394 49.3114 26.2472ZM48.649 25.6464C48.8492 25.6464 49.0187 25.5847 49.1573 25.4461C49.296 25.3074 49.373 25.138 49.373 24.9377C49.373 24.7374 49.296 24.5679 49.1573 24.4293C49.0187 24.2906 48.8492 24.2136 48.649 24.2136H47.2317V25.6464H48.649Z" fill="white"/>
<path d="M54.3948 23.4741H55.1959L53.5013 27.7108H52.6233L50.9287 23.4741H51.7298L53.0546 26.8018L54.3948 23.4741Z" fill="white"/>
<path d="M56.2744 27.7108V23.4741H57.0601V27.7108H56.2744Z" fill="white"/>
<path d="M61.4506 26.6507L61.9744 27.2207C61.543 27.6212 61.0347 27.8215 60.4647 27.8215C59.8485 27.8215 59.3247 27.6058 58.8934 27.1591C58.462 26.7123 58.231 26.1885 58.231 25.5722C58.231 24.956 58.4466 24.4322 58.8934 24.0008C59.3247 23.5695 59.8485 23.3384 60.4647 23.3384C61.0501 23.3384 61.5584 23.5387 61.9744 23.9392L61.4352 24.5092C61.1579 24.2473 60.8344 24.1241 60.4493 24.1241C60.0487 24.1241 59.7098 24.2627 59.4171 24.5555C59.1398 24.8328 58.9858 25.1871 58.9858 25.5877C58.9858 25.9882 59.1244 26.3271 59.4171 26.6199C59.6944 26.9126 60.0487 27.0512 60.4493 27.0512C60.8344 27.0512 61.1733 26.9126 61.4506 26.6507Z" fill="white"/>
<path d="M66.6572 24.1982H64.023V25.215H66.1951V25.9545H64.023V26.9713H66.6572V27.7108H63.2373V23.4741H66.6572V24.1982Z" fill="white"/>
<path d="M70.6937 27.6816C70.6013 27.774 70.4781 27.8356 70.3394 27.8356C70.2008 27.8356 70.0775 27.7894 69.9851 27.6816C69.8927 27.5737 69.8311 27.4659 69.8311 27.3273C69.8311 27.1886 69.8773 27.0653 69.9851 26.9729C70.0775 26.8805 70.2008 26.8188 70.3394 26.8188C70.4781 26.8188 70.6013 26.8651 70.6937 26.9729C70.7862 27.0653 70.8478 27.1886 70.8478 27.3273C70.8478 27.4659 70.8016 27.5737 70.6937 27.6816Z" fill="white"/>
<path d="M76.2546 23.4741C76.6859 23.4741 77.0556 23.6282 77.3637 23.9363C77.6718 24.2444 77.8259 24.5988 77.8259 25.0301C77.8259 25.4615 77.6718 25.8312 77.3637 26.1239C77.0556 26.4321 76.6859 26.5707 76.2546 26.5707H74.8989V27.7108H74.1133V23.4741H76.2546ZM76.2238 25.8158C76.4394 25.8158 76.6397 25.7388 76.7938 25.5847C76.9478 25.4307 77.0248 25.2458 77.0248 25.0301C77.0248 24.8144 76.9478 24.6296 76.7938 24.4601C76.6397 24.306 76.4394 24.229 76.2238 24.229H74.8989V25.8312H76.2238V25.8158Z" fill="white"/>
<path d="M80.9071 23.4741L82.6016 27.7108H81.816L81.4309 26.7556H79.3666L78.9815 27.7108H78.1804L79.875 23.4741H80.9071ZM79.6439 26.0469H81.1382L80.3833 24.1674L79.6439 26.0469Z" fill="white"/>
<path d="M86.0985 23.4741H86.992L85.2666 26.0315V27.7108H84.481V26.0315L82.7556 23.4741H83.6491L84.8815 25.292L86.0985 23.4741Z" fill="white"/>
<path fill-rule="evenodd" clip-rule="evenodd" d="M111.177 19.5597C110.946 19.5597 110.753 19.4056 110.714 19.2131L105.323 0.957344C105.246 0.687745 105.4 0.418146 105.669 0.341118C105.939 0.264089 106.209 0.418146 106.286 0.687746L111.677 18.9435C111.754 19.2131 111.6 19.4827 111.331 19.5597C111.254 19.5597 111.215 19.5597 111.177 19.5597Z" fill="white"/>
<path fill-rule="evenodd" clip-rule="evenodd" d="M106.94 2.92708L108.211 7.20215C108.904 6.70147 110.175 6.12375 111.87 6.39335C113.68 6.70147 114.72 5.9697 115.066 5.66158L113.795 1.42502C113.218 1.81017 111.985 2.42639 110.098 2.11828C108.519 1.81017 107.364 2.54194 106.94 2.92708ZM107.903 8.55015C107.865 8.55015 107.826 8.55015 107.788 8.55015C107.595 8.51163 107.479 8.39609 107.441 8.20352L105.9 2.92708C105.862 2.77302 105.9 2.58045 106.016 2.42639C106.093 2.34937 107.71 0.654742 110.291 1.11691C112.409 1.50205 113.487 0.423655 113.603 0.269598C113.68 0.115541 113.834 0 114.026 0C114.257 0 114.489 0.115543 114.566 0.346628L116.106 5.62307C116.145 5.7001 116.145 5.73861 116.106 5.81564C116.106 5.89267 116.068 6.16227 115.49 6.58592C115.028 6.93255 113.68 7.70284 111.677 7.35621C109.636 7.00958 108.327 8.35758 108.288 8.35758C108.173 8.47312 108.057 8.55015 107.903 8.55015Z" fill="white"/>
<path fill-rule="evenodd" clip-rule="evenodd" d="M108.943 23.4928C109.366 23.4928 109.79 23.5699 110.175 23.7624C110.676 23.9935 111.253 23.9935 111.716 23.7624C112.409 23.4158 113.218 23.3773 113.911 23.6854C114.642 23.4158 115.451 23.4543 116.144 23.801C116.221 23.8395 116.298 23.878 116.376 23.9165C116.453 23.3773 116.414 22.8381 116.26 22.2989C115.644 20.1806 113.41 18.9867 111.292 19.6029C109.52 20.1421 108.365 21.7597 108.442 23.5699C108.635 23.4928 108.789 23.4928 108.943 23.4928ZM110.945 24.9564C110.522 24.9564 110.098 24.8794 109.713 24.6868C109.251 24.4557 108.712 24.4557 108.211 24.6483C108.057 24.7253 107.903 24.7253 107.787 24.6483C107.633 24.5712 107.556 24.4557 107.518 24.3016C107.056 21.7982 108.558 19.3333 111.022 18.6015C113.68 17.8313 116.453 19.3333 117.223 21.9908C117.454 22.8381 117.492 23.7239 117.3 24.5712C117.261 24.8023 117.03 24.9564 116.799 24.9564C116.414 24.9179 116.067 24.8408 115.721 24.6868C115.22 24.4557 114.642 24.4557 114.18 24.6868C114.026 24.7638 113.872 24.7638 113.718 24.6868C113.218 24.4557 112.64 24.4557 112.178 24.6868C111.793 24.8794 111.369 24.9564 110.945 24.9564Z" fill="white"/>
<path fill-rule="evenodd" clip-rule="evenodd" d="M126.466 27.728C126.389 27.728 126.312 27.728 126.235 27.6895L125.118 27.1503C124.656 26.9192 124.155 26.9192 123.693 27.0733L123.038 27.3429C122.307 27.651 121.498 27.6125 120.805 27.2658L120.689 27.2273C120.458 27.1118 120.343 26.8037 120.458 26.5726C120.574 26.3415 120.882 26.226 121.113 26.3415L121.228 26.38C121.691 26.6111 122.191 26.6111 122.653 26.457L123.308 26.1874C124.04 25.8793 124.848 25.9178 125.542 26.2645L126.659 26.8037C126.89 26.9192 127.005 27.2273 126.89 27.4584C126.813 27.6125 126.659 27.728 126.466 27.728Z" fill="white"/>
<path fill-rule="evenodd" clip-rule="evenodd" d="M113.949 27.6923C113.526 27.6923 113.102 27.6153 112.717 27.4227C112.216 27.1916 111.639 27.1916 111.176 27.4227C110.945 27.5383 110.637 27.4612 110.522 27.1916C110.406 26.9606 110.483 26.6524 110.753 26.5369C111.523 26.1518 112.447 26.1518 113.218 26.5369C113.718 26.768 114.296 26.768 114.758 26.5369C115.528 26.1518 116.414 26.1518 117.184 26.5369C117.415 26.6524 117.531 26.9606 117.415 27.1916C117.3 27.4227 116.992 27.5383 116.761 27.4227C116.26 27.1916 115.682 27.1916 115.22 27.4227C114.797 27.6153 114.373 27.6923 113.949 27.6923Z" fill="white"/>
<path fill-rule="evenodd" clip-rule="evenodd" d="M97.4282 27.7333C97.2356 27.7333 97.0431 27.6178 96.966 27.4252C96.8505 27.1556 97.0046 26.886 97.2356 26.7705L98.8146 26.1542C99.5463 25.8461 100.355 25.8846 101.048 26.2313L101.164 26.2698C101.664 26.5009 102.242 26.5009 102.704 26.2698C103.475 25.8846 104.36 25.8846 105.131 26.2698C105.631 26.5009 106.209 26.5009 106.671 26.2698C106.71 26.2698 106.748 26.2313 106.787 26.2313C107.056 26.1542 107.326 26.3083 107.403 26.5779C107.48 26.809 107.326 27.0401 107.133 27.1556C106.363 27.5407 105.477 27.5407 104.707 27.1556C104.206 26.9245 103.629 26.9245 103.166 27.1556C102.396 27.5407 101.51 27.5407 100.74 27.1556L100.625 27.1171C100.163 26.886 99.6619 26.886 99.1997 27.0401L97.6207 27.6563C97.5822 27.7333 97.5052 27.7333 97.4282 27.7333Z" fill="white"/>
<path fill-rule="evenodd" clip-rule="evenodd" d="M98.4294 25.2255C98.2368 25.2255 98.0443 25.11 97.9673 24.9174C97.8517 24.6478 98.0058 24.3782 98.2368 24.2626L99.8158 23.6464C100.548 23.3383 101.356 23.3768 102.05 23.7235L102.165 23.762C102.666 23.993 103.243 23.993 103.706 23.762C104.476 23.3768 105.4 23.3768 106.17 23.762C106.671 23.993 107.249 23.993 107.711 23.762C108.481 23.3768 109.405 23.3768 110.175 23.762C110.676 23.993 111.254 23.993 111.716 23.762C112.409 23.4153 113.218 23.3768 113.911 23.6849C114.643 23.4153 115.452 23.4539 116.145 23.8005C116.645 24.0316 117.223 24.0316 117.685 23.8005C118.455 23.4153 119.341 23.4153 120.111 23.8005L120.227 23.839C120.689 24.0701 121.19 24.0701 121.652 23.916L122.307 23.6464C123.038 23.3383 123.847 23.3768 124.54 23.7235L125.657 24.2626C125.888 24.3782 126.004 24.6863 125.888 24.9174C125.773 25.1485 125.465 25.264 125.234 25.1485L124.117 24.6093C123.655 24.3782 123.154 24.3782 122.692 24.5322L122.037 24.8018C121.305 25.11 120.497 25.0714 119.803 24.7248L119.688 24.6863C119.187 24.4552 118.61 24.4552 118.147 24.6863C117.377 25.0714 116.491 25.0714 115.721 24.6863C115.22 24.4552 114.643 24.4552 114.181 24.6863C114.027 24.7633 113.873 24.7633 113.719 24.6863C113.218 24.4552 112.64 24.4552 112.178 24.6863C111.408 25.0714 110.522 25.0714 109.752 24.6863C109.251 24.4552 108.674 24.4552 108.211 24.6863C107.441 25.0714 106.517 25.0714 105.747 24.6863C105.246 24.4552 104.668 24.4552 104.206 24.6863C103.436 25.0714 102.512 25.0714 101.741 24.6863L101.626 24.6478C101.164 24.4167 100.663 24.4167 100.201 24.5708L98.622 25.187C98.5835 25.2255 98.5064 25.2255 98.4294 25.2255Z" fill="white"/>
<path fill-rule="evenodd" clip-rule="evenodd" d="M126.466 30C126.389 30 126.312 30 126.235 29.9615L125.118 29.4223C124.656 29.1912 124.155 29.1912 123.693 29.3452L123.038 29.6148C122.306 29.9229 121.498 29.8844 120.804 29.5378C120.573 29.4223 120.458 29.1142 120.573 28.8831C120.689 28.652 120.997 28.5364 121.228 28.652C121.69 28.8831 122.191 28.8831 122.653 28.729L123.308 28.4594C124.039 28.1513 124.848 28.1898 125.541 28.5364L126.658 29.0756C126.889 29.1912 127.005 29.4993 126.889 29.7304C126.812 29.9229 126.658 30 126.466 30Z" fill="white"/>
<path fill-rule="evenodd" clip-rule="evenodd" d="M113.949 29.7348C113.526 29.7348 113.102 29.6578 112.717 29.4652C112.486 29.3497 112.37 29.0416 112.486 28.8105C112.602 28.5794 112.91 28.4638 113.141 28.5794C113.641 28.8105 114.219 28.8105 114.681 28.5794C115.451 28.1942 116.337 28.1942 117.107 28.5794C117.338 28.6949 117.454 29.003 117.338 29.2341C117.223 29.4652 116.915 29.5808 116.684 29.4652C116.183 29.2341 115.605 29.2341 115.143 29.4652C114.797 29.6578 114.373 29.7348 113.949 29.7348Z" fill="white"/>
<path fill-rule="evenodd" clip-rule="evenodd" d="M105.939 29.734C105.516 29.734 105.092 29.657 104.707 29.4644C104.476 29.3489 104.36 29.0407 104.476 28.8097C104.591 28.5401 104.899 28.463 105.169 28.5786C105.67 28.8482 106.286 28.7711 106.786 28.5401C107.364 28.2705 108.019 28.2319 108.596 28.386C108.905 28.463 109.02 28.8097 108.905 29.0793C108.789 29.3103 108.558 29.3874 108.327 29.3489C107.942 29.2718 107.518 29.3103 107.172 29.5029C106.786 29.657 106.363 29.734 105.939 29.734Z" fill="white"/>
<path fill-rule="evenodd" clip-rule="evenodd" d="M97.4279 29.9999C97.2354 29.9999 97.0428 29.8844 96.9658 29.6918C96.8503 29.4222 97.0043 29.1526 97.2354 29.0371L98.8144 28.4208C99.5461 28.1127 100.355 28.1512 101.048 28.4979L101.164 28.5364C101.395 28.6519 101.51 28.96 101.395 29.1911C101.279 29.4222 100.971 29.5377 100.74 29.4222L100.624 29.3837C100.201 29.1526 99.6616 29.1526 99.1995 29.3067L97.6205 29.9229C97.582 29.9999 97.505 29.9999 97.4279 29.9999Z" fill="white"/>
</svg>
