<svg width="127" height="30" viewBox="0 0 127 30" fill="none" xmlns="http://www.w3.org/2000/svg">
<path d="M46.3317 5.49752H44.4834L39.45 11.7868L34.4281 5.49752H32.5798V17.2972H34.5444V8.79911L39.45 14.9489L44.3672 8.79911V17.2972H46.3317V5.49752ZM57.2007 13.8096L52.5625 7.78771C53.0507 7.57846 53.5622 7.47383 54.1085 7.47383C55.1896 7.47383 56.1196 7.85746 56.8868 8.62474C57.654 9.39201 58.0377 10.322 58.0377 11.4032C58.026 12.2983 57.747 13.1005 57.2007 13.8096ZM54.0969 15.3326C53.0158 15.3326 52.0859 14.9489 51.3186 14.1816C50.5514 13.4144 50.1678 12.4843 50.1678 11.4032C50.1678 10.508 50.4468 9.70589 50.9932 8.98512L55.6314 15.0187C55.1431 15.2279 54.6317 15.3326 54.0969 15.3326ZM54.0969 5.49752C52.4695 5.49752 51.0862 6.07879 49.9237 7.2297C48.7729 8.3806 48.2033 9.76402 48.2033 11.3916C48.2033 13.0191 48.7729 14.4025 49.9237 15.5651C51.0745 16.716 52.4695 17.2856 54.0969 17.2856C55.7244 17.2856 57.1077 16.716 58.2585 15.5651C59.4094 14.4141 59.9906 13.0191 59.9906 11.3916C59.9906 9.76402 59.4094 8.3806 58.2585 7.2297C57.1077 6.07879 55.7244 5.49752 54.0969 5.49752ZM70.8479 13.8096L66.2097 7.78771C66.698 7.57846 67.2211 7.47383 67.7558 7.47383C68.8369 7.47383 69.7668 7.85746 70.5341 8.62474C71.3013 9.39201 71.6849 10.322 71.6849 11.4032C71.6849 12.2983 71.4059 13.1005 70.8479 13.8096ZM67.7558 15.3326C66.6747 15.3326 65.7447 14.9489 64.9775 14.1816C64.2103 13.4144 63.8267 12.4843 63.8267 11.4032C63.8267 10.508 64.1057 9.70589 64.652 8.98512L69.2902 15.0187C68.802 15.2279 68.2905 15.3326 67.7558 15.3326ZM67.7558 5.49752C66.1284 5.49752 64.745 6.07879 63.5826 7.2297C62.4317 8.3806 61.8621 9.76402 61.8621 11.3916C61.8621 13.0191 62.4317 14.4025 63.5826 15.5651C64.7334 16.716 66.1284 17.2856 67.7558 17.2856C69.3832 17.2856 70.7666 16.716 71.9174 15.5651C73.0682 14.4141 73.6495 13.0191 73.6495 11.3916C73.6495 9.76402 73.0682 8.3806 71.9174 7.2297C70.7666 6.07879 69.3716 5.49752 67.7558 5.49752ZM78.6596 11.8682V7.45058H81.6123C82.2168 7.45058 82.7399 7.67146 83.17 8.1016C83.6001 8.53173 83.821 9.05487 83.821 9.67101C83.821 10.2755 83.6001 10.7987 83.17 11.2288C82.7399 11.6589 82.2168 11.8798 81.6123 11.8798H78.6596V11.8682ZM76.6835 7.45058V17.274H78.648V13.8329H80.7986L85.2973 19.5409L88.5522 20.5058L83.077 13.5539C83.8675 13.2516 84.5184 12.7517 84.995 12.0426C85.4949 11.3218 85.7506 10.5313 85.7506 9.64777C85.7506 8.49686 85.3438 7.5087 84.5301 6.69493C83.7163 5.88116 82.7282 5.46265 81.5774 5.46265H76.2999L75.4745 7.42733H76.6835V7.45058ZM98.1308 5.49752H88.9823L88.1569 7.4622H89.3426V17.2972H91.3072V12.3913H94.5504L95.1317 10.4267H91.3072V7.47383H97.5496L98.1308 5.49752ZM99.9907 5.49752V17.2972H101.955V5.49752H99.9907ZM113.65 5.49752H111.325L110.511 7.4622H111.685V13.7748L105.664 5.49752H103.827V17.2972H105.791V9.02L111.813 17.2972H113.65V5.49752ZM120.624 15.3326H118.66V7.47383H120.624C121.705 7.47383 122.635 7.85746 123.403 8.62474C124.17 9.39201 124.553 10.322 124.553 11.4032C124.553 12.4843 124.17 13.4144 123.403 14.1816C122.635 14.9489 121.705 15.3326 120.624 15.3326ZM120.624 5.49752H116.335L115.51 7.4622H116.684V17.2972H120.613C122.24 17.2972 123.623 16.7276 124.786 15.5767C125.937 14.4258 126.506 13.0307 126.506 11.4032C126.506 9.77564 125.937 8.39223 124.786 7.24132C123.635 6.07879 122.24 5.49752 120.624 5.49752Z" fill="white"/>
<path d="M37.2167 23.4741V27.7108H36.4465V24.9223L35.1371 26.7556H34.6749L33.3655 24.9223V27.7108H32.5798V23.4741H33.196L34.906 25.8621L36.6159 23.4741H37.2167Z" fill="white"/>
<path d="M40.8986 23.4741L42.5931 27.7108H41.8075L41.4223 26.7556H39.3581L38.9729 27.7108H38.1719L39.8664 23.4741H40.8986ZM39.6354 26.0469H41.1296L40.3748 24.1674L39.6354 26.0469Z" fill="white"/>
<path d="M47.3996 27.7108H46.8296L44.3186 24.799V27.7108H43.533V23.4741H44.1029L46.614 26.3858V23.4741H47.3996V27.7108Z" fill="white"/>
<path d="M51.0658 23.4741L52.7603 27.7108H51.9747L51.5896 26.7556H49.5253L49.1402 27.7108H48.3391L50.0337 23.4741H51.0658ZM49.8026 26.0469H51.2969L50.542 24.1674L49.8026 26.0469Z" fill="white"/>
<path d="M55.6104 25.3376H57.5668C57.5823 25.3992 57.5823 25.4762 57.5823 25.5841C57.5823 26.2157 57.3974 26.7395 57.0277 27.1555C56.6271 27.6023 56.1034 27.8334 55.4718 27.8334C54.8556 27.8334 54.3318 27.6177 53.9005 27.1709C53.4691 26.7241 53.238 26.2003 53.238 25.5841C53.238 24.9678 53.4537 24.4441 53.9005 24.0127C54.3318 23.5813 54.8556 23.3502 55.4718 23.3502C55.8261 23.3502 56.165 23.4273 56.4885 23.5967C56.812 23.7662 57.0739 23.9819 57.2896 24.2746L56.6425 24.7214C56.5039 24.5365 56.3344 24.3978 56.1342 24.29C55.9339 24.1821 55.7182 24.1359 55.4872 24.1359C55.0866 24.1359 54.7477 24.2746 54.455 24.5673C54.1777 24.8446 54.0237 25.1989 54.0237 25.5995C54.0237 26.0001 54.1623 26.339 54.455 26.6317C54.7323 26.9244 55.0866 27.0631 55.4872 27.0631C55.8261 27.0631 56.088 26.9706 56.3036 26.7858C56.5193 26.6009 56.6734 26.3698 56.7504 26.0925H55.6258V25.3376H55.6104Z" fill="white"/>
<path d="M62.1882 24.1982H59.554V25.215H61.7261V25.9545H59.554V26.9713H62.1882V27.7108H58.7683V23.4741H62.1882V24.1982Z" fill="white"/>
<path d="M66.2242 27.6817C66.1318 27.7741 66.0086 27.8358 65.8699 27.8358C65.7313 27.8358 65.6081 27.7896 65.5156 27.6817C65.4232 27.5893 65.3616 27.466 65.3616 27.3274C65.3616 27.1887 65.4078 27.0655 65.5156 26.973C65.6081 26.8806 65.7313 26.819 65.8699 26.819C66.0086 26.819 66.1318 26.8652 66.2242 26.973C66.3167 27.0655 66.3783 27.1887 66.3783 27.3274C66.3783 27.466 66.3321 27.5739 66.2242 27.6817Z" fill="white"/>
<path d="M71.416 25.2494C71.6009 25.311 71.7395 25.3572 71.8627 25.388C71.9706 25.4342 72.1092 25.4804 72.2633 25.5729C72.4173 25.6499 72.5406 25.7269 72.633 25.8194C72.7254 25.8964 72.8025 26.0042 72.8641 26.1429C72.9257 26.2661 72.9565 26.4202 72.9565 26.5743C72.9565 26.8054 72.9103 27.0056 72.8025 27.1597C72.71 27.3292 72.5714 27.4524 72.3865 27.5448C72.2171 27.6373 72.0168 27.6989 71.8165 27.7451C71.6163 27.7913 71.3852 27.8067 71.1387 27.8067C70.5225 27.8067 69.9525 27.6527 69.3979 27.3446L69.7985 26.7129C70.276 26.9748 70.7228 27.0981 71.1695 27.0981C71.8011 27.0981 72.1246 26.9286 72.1246 26.5897C72.1246 26.4972 72.0938 26.4202 72.0476 26.3432C72.0014 26.2661 71.9244 26.2045 71.8011 26.1583C71.6933 26.0967 71.5855 26.0659 71.493 26.0197C71.4006 25.9888 71.262 25.9426 71.0925 25.8964C71.0771 25.8964 71.0771 25.8964 71.0771 25.8964H71.0617H71.0463C70.846 25.8348 70.692 25.7886 70.5841 25.7578C70.4763 25.7269 70.3377 25.6653 70.1836 25.5883C70.0142 25.5112 69.8909 25.4342 69.8139 25.3418C69.7215 25.2648 69.6598 25.1569 69.5828 25.0183C69.5212 24.8796 69.4904 24.741 69.4904 24.5715C69.4904 24.2326 69.629 23.9552 69.9217 23.7396C70.2298 23.5239 70.6612 23.4006 71.2311 23.4006C71.7857 23.4006 72.3249 23.5547 72.8641 23.8628L72.4789 24.4636C72.0322 24.2171 71.6009 24.0939 71.1849 24.0939C70.8922 24.0939 70.6766 24.1401 70.5225 24.2172C70.3685 24.2942 70.2914 24.402 70.2914 24.5407C70.2914 24.6177 70.3068 24.6793 70.3531 24.7409C70.3993 24.8026 70.4455 24.8488 70.4917 24.895C70.5379 24.9412 70.6149 24.972 70.7228 25.0183C70.8306 25.0645 70.923 25.0953 70.9847 25.1261C71.0463 25.1415 71.1541 25.1877 71.3082 25.2185C71.3698 25.2339 71.4006 25.2339 71.416 25.2494Z" fill="white"/>
<path d="M77.7012 24.1982H75.0669V25.215H77.239V25.9545H75.0669V26.9713H77.7012V27.7108H74.2812V23.4741H77.7012V24.1982Z" fill="white"/>
<path d="M81.8912 26.2472L82.985 27.7108H82.0607L81.0901 26.4013H79.8115V27.7108H79.0259V23.4741H81.2596C81.6755 23.4741 82.0145 23.6128 82.3071 23.9055C82.5998 24.1982 82.7385 24.5371 82.7385 24.9377C82.7385 25.2304 82.6615 25.4923 82.5074 25.7234C82.3534 25.9545 82.1531 26.1394 81.8912 26.2472ZM81.2288 25.6464C81.4291 25.6464 81.5985 25.5847 81.7372 25.4461C81.8758 25.3074 81.9528 25.138 81.9528 24.9377C81.9528 24.7374 81.8758 24.5679 81.7372 24.4293C81.5985 24.2906 81.4291 24.2136 81.2288 24.2136H79.8115V25.6464H81.2288Z" fill="white"/>
<path d="M86.9747 23.4741H87.7757L86.0812 27.7108H85.2031L83.5085 23.4741H84.3096L85.6344 26.8018L86.9747 23.4741Z" fill="white"/>
<path d="M88.8542 27.7108V23.4741H89.6399V27.7108H88.8542Z" fill="white"/>
<path d="M94.0304 26.6508L94.5542 27.2208C94.1229 27.6214 93.6145 27.8216 93.0445 27.8216C92.4283 27.8216 91.9045 27.606 91.4732 27.1592C91.0419 26.7124 90.8108 26.1886 90.8108 25.5724C90.8108 24.9561 91.0265 24.4323 91.4732 24.001C91.9045 23.5696 92.4283 23.3385 93.0445 23.3385C93.6299 23.3385 94.1383 23.5388 94.5542 23.9393L94.015 24.5094C93.7377 24.2475 93.4142 24.1242 93.0291 24.1242C92.6286 24.1242 92.2897 24.2629 91.997 24.5556C91.7197 24.8329 91.5656 25.1872 91.5656 25.5878C91.5656 25.9883 91.7043 26.3273 91.997 26.62C92.2743 26.9127 92.6286 27.0513 93.0291 27.0513C93.4142 27.0513 93.7531 26.9127 94.0304 26.6508Z" fill="white"/>
<path d="M99.237 24.1982H96.6028V25.215H98.7749V25.9545H96.6028V26.9713H99.237V27.7108H95.8171V23.4741H99.237V24.1982Z" fill="white"/>
<path d="M103.274 27.6817C103.181 27.7741 103.058 27.8358 102.919 27.8358C102.781 27.8358 102.657 27.7896 102.565 27.6817C102.473 27.5739 102.411 27.466 102.411 27.3274C102.411 27.1887 102.457 27.0655 102.565 26.973C102.657 26.8806 102.781 26.819 102.919 26.819C103.058 26.819 103.181 26.8652 103.274 26.973C103.366 27.0655 103.428 27.1887 103.428 27.3274C103.428 27.466 103.381 27.5739 103.274 27.6817Z" fill="white"/>
<path d="M108.834 23.4741C109.266 23.4741 109.635 23.6282 109.944 23.9363C110.252 24.2444 110.406 24.5988 110.406 25.0301C110.406 25.4615 110.252 25.8312 109.944 26.1239C109.635 26.4321 109.266 26.5707 108.834 26.5707H107.479V27.7108H106.693V23.4741H108.834ZM108.804 25.8158C109.019 25.8158 109.22 25.7388 109.374 25.5847C109.528 25.4307 109.605 25.2458 109.605 25.0301C109.605 24.8144 109.528 24.6296 109.374 24.4601C109.22 24.306 109.019 24.229 108.804 24.229H107.479V25.8312H108.804V25.8158Z" fill="white"/>
<path d="M113.487 23.4741L115.181 27.7108H114.396L114.011 26.7556H111.946L111.561 27.7108H110.76L112.455 23.4741H113.487ZM112.224 26.0469H113.718L112.963 24.1674L112.224 26.0469Z" fill="white"/>
<path d="M118.678 23.4741H119.572L117.846 26.0315V27.7108H117.061V26.0315L115.335 23.4741H116.229L117.461 25.292L118.678 23.4741Z" fill="white"/>
<path fill-rule="evenodd" clip-rule="evenodd" d="M14.2501 19.5598C14.019 19.5598 13.8264 19.4058 13.7879 19.2132L8.39629 0.957466C8.31927 0.687867 8.47332 0.418268 8.7429 0.34124C9.01248 0.264211 9.28206 0.418269 9.35908 0.687868L14.7507 18.9436C14.8277 19.2132 14.6737 19.4828 14.4041 19.5598C14.3271 19.5598 14.2886 19.5598 14.2501 19.5598Z" fill="white"/>
<path fill-rule="evenodd" clip-rule="evenodd" d="M10.0137 2.92708L11.2846 7.20215C11.9778 6.70147 13.2487 6.12375 14.9432 6.39335C16.7533 6.70147 17.7931 5.9697 18.1397 5.66158L16.8688 1.42502C16.2911 1.81017 15.0588 2.42639 13.1717 2.11828C11.5927 1.81017 10.4374 2.54194 10.0137 2.92708ZM10.9765 8.55015C10.938 8.55015 10.8995 8.55015 10.861 8.55015C10.6684 8.51163 10.5529 8.39609 10.5144 8.20352L8.97391 2.92708C8.9354 2.77302 8.97391 2.58045 9.08945 2.42639C9.16647 2.34937 10.784 0.654742 13.3642 1.11691C15.4824 1.50205 16.5607 0.423655 16.6762 0.269598C16.7533 0.115541 16.9073 0 17.0999 0C17.331 0 17.562 0.115543 17.639 0.346628L19.1795 5.62307C19.218 5.7001 19.218 5.73861 19.1795 5.81564C19.1795 5.89267 19.141 6.16227 18.5633 6.58592C18.1012 6.93255 16.7533 7.70284 14.7507 7.35621C12.7095 7.00958 11.4002 8.35758 11.3616 8.35758C11.2461 8.47312 11.1306 8.55015 10.9765 8.55015Z" fill="white"/>
<path fill-rule="evenodd" clip-rule="evenodd" d="M12.0163 23.493C12.4399 23.493 12.8635 23.57 13.2486 23.7626C13.7493 23.9937 14.327 23.9937 14.7891 23.7626C15.4823 23.4159 16.291 23.3774 16.9843 23.6855C17.716 23.4159 18.5247 23.4545 19.2179 23.8011C19.295 23.8396 19.372 23.8781 19.449 23.9166C19.526 23.3774 19.4875 22.8382 19.3335 22.299C18.7173 20.1807 16.4836 18.9868 14.3655 19.603C12.5939 20.1422 11.4386 21.7598 11.5156 23.57C11.7082 23.493 11.8622 23.493 12.0163 23.493ZM14.0189 24.9565C13.5952 24.9565 13.1716 24.8795 12.7865 24.6869C12.3243 24.4558 11.7852 24.4558 11.2845 24.6484C11.1305 24.7254 10.9764 24.7254 10.8609 24.6484C10.7069 24.5714 10.6298 24.4558 10.5913 24.3018C10.1292 21.7983 11.6311 19.3334 14.0959 18.6017C16.7532 17.8314 19.526 19.3334 20.2963 21.9909C20.5273 22.8382 20.5658 23.7241 20.3733 24.5714C20.3348 24.8025 20.1037 24.9565 19.8726 24.9565C19.4875 24.918 19.1409 24.841 18.7943 24.6869C18.2937 24.4558 17.716 24.4558 17.2538 24.6869C17.0998 24.7639 16.9457 24.7639 16.7917 24.6869C16.291 24.4558 15.7134 24.4558 15.2512 24.6869C14.8661 24.8795 14.4425 24.9565 14.0189 24.9565Z" fill="white"/>
<path fill-rule="evenodd" clip-rule="evenodd" d="M29.5395 27.7282C29.4625 27.7282 29.3854 27.7283 29.3084 27.6897L28.1916 27.1505C27.7294 26.9195 27.2288 26.9195 26.7666 27.0735L26.1119 27.3431C25.3802 27.6512 24.5715 27.6127 23.8783 27.2661L23.7627 27.2276C23.5317 27.112 23.4161 26.8039 23.5317 26.5728C23.6472 26.3417 23.9553 26.2262 24.1864 26.3417L24.3019 26.3803C24.764 26.6113 25.2647 26.6113 25.7268 26.4573L26.3815 26.1877C27.1132 25.8796 27.922 25.9181 28.6152 26.2647L29.732 26.8039C29.9631 26.9195 30.0786 27.2276 29.9631 27.4587C29.8861 27.6127 29.732 27.7282 29.5395 27.7282Z" fill="white"/>
<path fill-rule="evenodd" clip-rule="evenodd" d="M17.0227 27.6926C16.5991 27.6926 16.1755 27.6155 15.7904 27.423C15.2897 27.1919 14.712 27.1919 14.2499 27.423C14.0188 27.5385 13.7107 27.4615 13.5952 27.1919C13.4797 26.9608 13.5567 26.6527 13.8263 26.5371C14.5965 26.152 15.5208 26.152 16.291 26.5371C16.7917 26.7682 17.3693 26.7682 17.8315 26.5371C18.6017 26.152 19.4875 26.152 20.2577 26.5371C20.4888 26.6527 20.6043 26.9608 20.4888 27.1919C20.3733 27.423 20.0652 27.5385 19.8341 27.423C19.3334 27.1919 18.7558 27.1919 18.2936 27.423C17.87 27.6155 17.4464 27.6926 17.0227 27.6926Z" fill="white"/>
<path fill-rule="evenodd" clip-rule="evenodd" d="M0.501675 27.7333C0.309117 27.7333 0.116556 27.6178 0.0395331 27.4252C-0.076002 27.1556 0.0780465 26.886 0.309117 26.7705L1.8881 26.1542C2.61982 25.8461 3.42856 25.8846 4.12177 26.2313L4.23731 26.2698C4.73796 26.5009 5.31563 26.5009 5.77777 26.2698C6.54801 25.8846 7.43378 25.8846 8.20401 26.2698C8.70466 26.5009 9.28234 26.5009 9.74448 26.2698C9.78299 26.2698 9.8215 26.2313 9.86001 26.2313C10.1296 26.1542 10.3992 26.3083 10.4762 26.5779C10.5532 26.809 10.3992 27.0401 10.2066 27.1556C9.43639 27.5407 8.55062 27.5407 7.78038 27.1556C7.27973 26.9245 6.70206 26.9245 6.23992 27.1556C5.46968 27.5407 4.58391 27.5407 3.81368 27.1556L3.69814 27.1171C3.236 26.886 2.73535 26.886 2.27321 27.0401L0.694233 27.6563C0.655722 27.7333 0.578698 27.7333 0.501675 27.7333Z" fill="white"/>
<path fill-rule="evenodd" clip-rule="evenodd" d="M1.50289 25.2255C1.31033 25.2255 1.11778 25.11 1.04075 24.9174C0.925219 24.6478 1.07926 24.3782 1.31033 24.2626L2.88931 23.6464C3.62104 23.3383 4.42978 23.3768 5.12299 23.7235L5.23853 23.762C5.73918 23.993 6.31685 23.993 6.77899 23.762C7.54923 23.3768 8.47351 23.3768 9.24374 23.762C9.7444 23.993 10.3221 23.993 10.7842 23.762C11.5544 23.3768 12.4787 23.3768 13.249 23.762C13.7496 23.993 14.3273 23.993 14.7894 23.762C15.4826 23.4153 16.2914 23.3768 16.9846 23.6849C17.7163 23.4153 18.5251 23.4539 19.2183 23.8005C19.7189 24.0316 20.2966 24.0316 20.7587 23.8005C21.529 23.4153 22.4147 23.4153 23.185 23.8005L23.3005 23.839C23.7626 24.0701 24.2633 24.0701 24.7254 23.916L25.3801 23.6464C26.1119 23.3383 26.9206 23.3768 27.6138 23.7235L28.7307 24.2626C28.9617 24.3782 29.0773 24.6863 28.9617 24.9174C28.8462 25.1485 28.5381 25.264 28.307 25.1485L27.1902 24.6093C26.728 24.3782 26.2274 24.3782 25.7653 24.5322L25.1106 24.8018C24.3788 25.11 23.5701 25.0714 22.8769 24.7248L22.7613 24.6863C22.2607 24.4552 21.683 24.4552 21.2209 24.6863C20.4506 25.0714 19.5649 25.0714 18.7946 24.6863C18.294 24.4552 17.7163 24.4552 17.2542 24.6863C17.1001 24.7633 16.9461 24.7633 16.792 24.6863C16.2914 24.4552 15.7137 24.4552 15.2516 24.6863C14.4813 25.0714 13.5956 25.0714 12.8253 24.6863C12.3247 24.4552 11.747 24.4552 11.2849 24.6863C10.5146 25.0714 9.59035 25.0714 8.82011 24.6863C8.31946 24.4552 7.74179 24.4552 7.27965 24.6863C6.50941 25.0714 5.58513 25.0714 4.8149 24.6863L4.69936 24.6478C4.23722 24.4167 3.73657 24.4167 3.27443 24.5708L1.69545 25.187C1.65694 25.2255 1.57992 25.2255 1.50289 25.2255Z" fill="white"/>
<path fill-rule="evenodd" clip-rule="evenodd" d="M29.5392 30C29.4622 30 29.3851 30 29.3081 29.9615L28.1913 29.4223C27.7291 29.1912 27.2285 29.1912 26.7663 29.3452L26.1116 29.6148C25.3799 29.9229 24.5712 29.8844 23.878 29.5378C23.6469 29.4223 23.5314 29.1142 23.6469 28.8831C23.7624 28.652 24.0705 28.5364 24.3016 28.652C24.7637 28.8831 25.2644 28.8831 25.7265 28.729L26.3812 28.4594C27.1129 28.1513 27.9217 28.1898 28.6149 28.5364L29.7317 29.0756C29.9628 29.1912 30.0783 29.4993 29.9628 29.7304C29.8858 29.9229 29.7317 30 29.5392 30Z" fill="white"/>
<path fill-rule="evenodd" clip-rule="evenodd" d="M17.0229 29.7349C16.5993 29.7349 16.1757 29.6579 15.7906 29.4653C15.5595 29.3498 15.4439 29.0417 15.5595 28.8106C15.675 28.5795 15.9831 28.464 16.2142 28.5795C16.7148 28.8106 17.2925 28.8106 17.7546 28.5795C18.5249 28.1944 19.4107 28.1944 20.1809 28.5795C20.412 28.695 20.5275 29.0032 20.412 29.2342C20.2964 29.4653 19.9883 29.5809 19.7573 29.4653C19.2566 29.2342 18.6789 29.2342 18.2168 29.4653C17.8702 29.6579 17.4466 29.7349 17.0229 29.7349Z" fill="white"/>
<path fill-rule="evenodd" clip-rule="evenodd" d="M9.01268 29.7338C8.58905 29.7338 8.16542 29.6567 7.7803 29.4642C7.54923 29.3486 7.4337 29.0405 7.54923 28.8094C7.66477 28.5398 7.97286 28.4628 8.24244 28.5783C8.74309 28.8479 9.35928 28.7709 9.85993 28.5398C10.4376 28.2702 11.0923 28.2317 11.67 28.3858C11.9781 28.4628 12.0936 28.8094 11.9781 29.079C11.8625 29.3101 11.6315 29.3871 11.4004 29.3486C11.0153 29.2716 10.5917 29.3101 10.245 29.5027C9.85993 29.6567 9.4363 29.7338 9.01268 29.7338Z" fill="white"/>
<path fill-rule="evenodd" clip-rule="evenodd" d="M0.501431 29.9999C0.308872 29.9999 0.116312 29.8844 0.039289 29.6918C-0.0762461 29.4222 0.0778024 29.1526 0.308873 29.0371L1.88785 28.4208C2.61957 28.1127 3.42832 28.1512 4.12153 28.4979L4.23706 28.5364C4.46813 28.6519 4.58367 28.96 4.46813 29.1911C4.3526 29.4222 4.04451 29.5377 3.81344 29.4222L3.6979 29.3837C3.27427 29.1526 2.73511 29.1526 2.27297 29.3067L0.693989 29.9229C0.655478 29.9999 0.578454 29.9999 0.501431 29.9999Z" fill="white"/>
</svg>
