<svg width="30" height="30" viewBox="0 0 30 30" fill="none" xmlns="http://www.w3.org/2000/svg">
<path fill-rule="evenodd" clip-rule="evenodd" d="M14.2501 19.5599C14.019 19.5599 13.8264 19.4059 13.7879 19.2133L8.39629 0.957588C8.31927 0.687989 8.47332 0.41839 8.7429 0.341362C9.01248 0.264333 9.28206 0.418391 9.35908 0.68799L14.7507 18.9437C14.8277 19.2133 14.6737 19.4829 14.4041 19.5599C14.3271 19.5599 14.2886 19.5599 14.2501 19.5599Z" fill="white"/>
<path fill-rule="evenodd" clip-rule="evenodd" d="M10.0137 2.92708L11.2846 7.20215C11.9778 6.70147 13.2487 6.12375 14.9432 6.39335C16.7533 6.70147 17.7931 5.9697 18.1397 5.66158L16.8688 1.42502C16.2911 1.81017 15.0588 2.42639 13.1717 2.11828C11.5927 1.81017 10.4374 2.54194 10.0137 2.92708ZM10.9765 8.55015C10.938 8.55015 10.8995 8.55015 10.861 8.55015C10.6684 8.51163 10.5529 8.39609 10.5144 8.20352L8.97391 2.92708C8.9354 2.77302 8.97391 2.58045 9.08945 2.42639C9.16647 2.34937 10.784 0.654742 13.3642 1.11691C15.4824 1.50205 16.5607 0.423655 16.6762 0.269598C16.7533 0.115541 16.9073 0 17.0999 0C17.331 0 17.562 0.115543 17.639 0.346628L19.1795 5.62307C19.218 5.7001 19.218 5.73861 19.1795 5.81564C19.1795 5.89267 19.141 6.16227 18.5633 6.58592C18.1012 6.93255 16.7533 7.70284 14.7507 7.35621C12.7095 7.00958 11.4002 8.35758 11.3616 8.35758C11.2461 8.47312 11.1306 8.55015 10.9765 8.55015Z" fill="white"/>
<path fill-rule="evenodd" clip-rule="evenodd" d="M12.0163 23.4931C12.4399 23.4931 12.8635 23.5701 13.2486 23.7627C13.7493 23.9938 14.327 23.9938 14.7891 23.7627C15.4823 23.4161 16.291 23.3775 16.9843 23.6857C17.716 23.4161 18.5247 23.4546 19.2179 23.8012C19.295 23.8397 19.372 23.8782 19.449 23.9167C19.526 23.3776 19.4875 22.8383 19.3335 22.2991C18.7173 20.1809 16.4836 18.9869 14.3655 19.6032C12.5939 20.1424 11.4386 21.76 11.5156 23.5701C11.7082 23.4931 11.8622 23.4931 12.0163 23.4931ZM14.0189 24.9566C13.5952 24.9566 13.1716 24.8796 12.7865 24.687C12.3243 24.4559 11.7852 24.4559 11.2845 24.6485C11.1305 24.7255 10.9764 24.7255 10.8609 24.6485C10.7069 24.5715 10.6298 24.4559 10.5913 24.3019C10.1292 21.7985 11.6311 19.3336 14.0959 18.6018C16.7532 17.8315 19.526 19.3336 20.2963 21.991C20.5273 22.8384 20.5658 23.7242 20.3733 24.5715C20.3348 24.8026 20.1037 24.9566 19.8726 24.9566C19.4875 24.9181 19.1409 24.8411 18.7943 24.687C18.2937 24.4559 17.716 24.4559 17.2538 24.687C17.0998 24.7641 16.9457 24.7641 16.7917 24.687C16.291 24.4559 15.7134 24.4559 15.2512 24.687C14.8661 24.8796 14.4425 24.9566 14.0189 24.9566Z" fill="white"/>
<path fill-rule="evenodd" clip-rule="evenodd" d="M29.5395 27.7282C29.4625 27.7282 29.3854 27.7283 29.3084 27.6897L28.1916 27.1505C27.7294 26.9195 27.2288 26.9195 26.7666 27.0735L26.1119 27.3431C25.3802 27.6512 24.5715 27.6127 23.8783 27.2661L23.7627 27.2276C23.5317 27.112 23.4161 26.8039 23.5317 26.5728C23.6472 26.3417 23.9553 26.2262 24.1864 26.3417L24.3019 26.3803C24.764 26.6113 25.2647 26.6113 25.7268 26.4573L26.3815 26.1877C27.1132 25.8796 27.922 25.9181 28.6152 26.2647L29.732 26.8039C29.9631 26.9195 30.0786 27.2276 29.9631 27.4587C29.8861 27.6127 29.732 27.7282 29.5395 27.7282Z" fill="white"/>
<path fill-rule="evenodd" clip-rule="evenodd" d="M17.0229 27.6926C16.5992 27.6926 16.1756 27.6155 15.7905 27.423C15.2898 27.1919 14.7122 27.1919 14.25 27.423C14.019 27.5385 13.7109 27.4615 13.5953 27.1919C13.4798 26.9608 13.5568 26.6527 13.8264 26.5371C14.5966 26.152 15.5209 26.152 16.2911 26.5371C16.7918 26.7682 17.3695 26.7682 17.8316 26.5371C18.6018 26.152 19.4876 26.152 20.2578 26.5371C20.4889 26.6527 20.6045 26.9608 20.4889 27.1919C20.3734 27.423 20.0653 27.5385 19.8342 27.423C19.3336 27.1919 18.7559 27.1919 18.2938 27.423C17.8701 27.6155 17.4465 27.6926 17.0229 27.6926Z" fill="white"/>
<path fill-rule="evenodd" clip-rule="evenodd" d="M0.501675 27.7333C0.309117 27.7333 0.116556 27.6178 0.0395331 27.4252C-0.076002 27.1556 0.0780465 26.886 0.309117 26.7705L1.8881 26.1542C2.61982 25.8461 3.42856 25.8846 4.12177 26.2313L4.23731 26.2698C4.73796 26.5009 5.31563 26.5009 5.77777 26.2698C6.54801 25.8846 7.43378 25.8846 8.20401 26.2698C8.70466 26.5009 9.28234 26.5009 9.74448 26.2698C9.78299 26.2698 9.8215 26.2313 9.86001 26.2313C10.1296 26.1542 10.3992 26.3083 10.4762 26.5779C10.5532 26.809 10.3992 27.0401 10.2066 27.1556C9.43639 27.5407 8.55062 27.5407 7.78038 27.1556C7.27973 26.9245 6.70206 26.9245 6.23992 27.1556C5.46968 27.5407 4.58391 27.5407 3.81368 27.1556L3.69814 27.1171C3.236 26.886 2.73535 26.886 2.27321 27.0401L0.694233 27.6563C0.655722 27.7333 0.578698 27.7333 0.501675 27.7333Z" fill="white"/>
<path fill-rule="evenodd" clip-rule="evenodd" d="M1.50289 25.2255C1.31033 25.2255 1.11778 25.11 1.04075 24.9174C0.925219 24.6478 1.07926 24.3782 1.31033 24.2626L2.88931 23.6464C3.62104 23.3383 4.42978 23.3768 5.12299 23.7235L5.23853 23.762C5.73918 23.993 6.31685 23.993 6.77899 23.762C7.54923 23.3768 8.47351 23.3768 9.24374 23.762C9.7444 23.993 10.3221 23.993 10.7842 23.762C11.5544 23.3768 12.4787 23.3768 13.249 23.762C13.7496 23.993 14.3273 23.993 14.7894 23.762C15.4826 23.4153 16.2914 23.3768 16.9846 23.6849C17.7163 23.4153 18.5251 23.4539 19.2183 23.8005C19.7189 24.0316 20.2966 24.0316 20.7587 23.8005C21.529 23.4153 22.4147 23.4153 23.185 23.8005L23.3005 23.839C23.7626 24.0701 24.2633 24.0701 24.7254 23.916L25.3801 23.6464C26.1119 23.3383 26.9206 23.3768 27.6138 23.7235L28.7307 24.2626C28.9617 24.3782 29.0773 24.6863 28.9617 24.9174C28.8462 25.1485 28.5381 25.264 28.307 25.1485L27.1902 24.6093C26.728 24.3782 26.2274 24.3782 25.7653 24.5322L25.1106 24.8018C24.3788 25.11 23.5701 25.0714 22.8769 24.7248L22.7613 24.6863C22.2607 24.4552 21.683 24.4552 21.2209 24.6863C20.4506 25.0714 19.5649 25.0714 18.7946 24.6863C18.294 24.4552 17.7163 24.4552 17.2542 24.6863C17.1001 24.7633 16.9461 24.7633 16.792 24.6863C16.2914 24.4552 15.7137 24.4552 15.2516 24.6863C14.4813 25.0714 13.5956 25.0714 12.8253 24.6863C12.3247 24.4552 11.747 24.4552 11.2849 24.6863C10.5146 25.0714 9.59035 25.0714 8.82011 24.6863C8.31946 24.4552 7.74179 24.4552 7.27965 24.6863C6.50941 25.0714 5.58513 25.0714 4.8149 24.6863L4.69936 24.6478C4.23722 24.4167 3.73657 24.4167 3.27443 24.5708L1.69545 25.187C1.65694 25.2255 1.57992 25.2255 1.50289 25.2255Z" fill="white"/>
<path fill-rule="evenodd" clip-rule="evenodd" d="M29.5393 30C29.4623 30 29.3853 30 29.3082 29.9615L28.1914 29.4223C27.7292 29.1912 27.2286 29.1912 26.7665 29.3452L26.1118 29.6148C25.38 29.9229 24.5713 29.8844 23.8781 29.5378C23.647 29.4223 23.5315 29.1142 23.647 28.8831C23.7625 28.652 24.0706 28.5364 24.3017 28.652C24.7638 28.8831 25.2645 28.8831 25.7266 28.729L26.3813 28.4594C27.1131 28.1513 27.9218 28.1898 28.615 28.5364L29.7319 29.0756C29.9629 29.1912 30.0785 29.4993 29.9629 29.7304C29.8859 29.9229 29.7319 30 29.5393 30Z" fill="white"/>
<path fill-rule="evenodd" clip-rule="evenodd" d="M17.0229 29.7351C16.5993 29.7351 16.1757 29.658 15.7906 29.4655C15.5595 29.3499 15.4439 29.0418 15.5595 28.8107C15.675 28.5796 15.9831 28.4641 16.2142 28.5796C16.7148 28.8107 17.2925 28.8107 17.7546 28.5796C18.5249 28.1945 19.4107 28.1945 20.1809 28.5796C20.412 28.6952 20.5275 29.0033 20.412 29.2344C20.2964 29.4655 19.9883 29.581 19.7573 29.4655C19.2566 29.2344 18.6789 29.2344 18.2168 29.4655C17.8702 29.658 17.4466 29.7351 17.0229 29.7351Z" fill="white"/>
<path fill-rule="evenodd" clip-rule="evenodd" d="M9.01268 29.7338C8.58905 29.7338 8.16542 29.6567 7.7803 29.4642C7.54923 29.3486 7.4337 29.0405 7.54923 28.8094C7.66477 28.5398 7.97286 28.4628 8.24244 28.5783C8.74309 28.8479 9.35928 28.7709 9.85993 28.5398C10.4376 28.2702 11.0923 28.2317 11.67 28.3858C11.9781 28.4628 12.0936 28.8094 11.9781 29.079C11.8625 29.3101 11.6315 29.3871 11.4004 29.3486C11.0153 29.2716 10.5917 29.3101 10.245 29.5027C9.85993 29.6567 9.4363 29.7338 9.01268 29.7338Z" fill="white"/>
<path fill-rule="evenodd" clip-rule="evenodd" d="M0.501431 29.9999C0.308872 29.9999 0.116312 29.8844 0.039289 29.6918C-0.0762461 29.4222 0.0778024 29.1526 0.308873 29.0371L1.88785 28.4208C2.61957 28.1127 3.42832 28.1512 4.12153 28.4979L4.23706 28.5364C4.46813 28.6519 4.58367 28.96 4.46813 29.1911C4.3526 29.4222 4.04451 29.5377 3.81344 29.4222L3.6979 29.3837C3.27427 29.1526 2.73511 29.1526 2.27297 29.3067L0.693989 29.9229C0.655478 29.9999 0.578454 29.9999 0.501431 29.9999Z" fill="white"/>
</svg>
