<svg width="14" height="21" viewBox="0 0 14 21" fill="none" xmlns="http://www.w3.org/2000/svg">
<path d="M5.69563 7.43114C5.69563 7.43114 6.02813 6.12979 6.90117 5.9935C7.77398 5.85766 8.30489 6.40126 9.02305 5.84191C9.73968 5.28366 10.0542 4.43118 10.0542 4.43118L8.90733 0.5C8.90733 0.5 7.90327 2.08464 7.38811 2.79011C6.87142 3.49646 6.14582 2.66389 5.34738 3.46518C4.18843 4.6274 5.69563 7.43114 5.69563 7.43114Z" fill="white"/>
<path d="M5.43706 8.54873L4.15955 5.06533C4.09371 4.88552 3.89486 4.79386 3.71505 4.85971C3.53567 4.92555 3.44336 5.12396 3.50921 5.30399L4.78824 8.79154C2.51389 9.83542 1.28713 12.343 1.84385 14.7737L11.7585 11.2873C10.6307 8.95648 7.94789 7.76976 5.43706 8.54873Z" fill="white"/>
<path d="M2.93536 16.9612C3.35252 16.7591 3.8399 16.6574 4.28987 16.6574C4.77659 16.6574 5.26375 16.7591 5.68069 16.9612C6.06329 17.1282 6.51435 17.2292 7.00064 17.2292C7.45389 17.2292 7.90474 17.1282 8.32146 16.9612C8.73862 16.7591 9.19122 16.6574 9.6775 16.6574C10.1633 16.6574 10.6164 16.7591 11.0322 16.9612C11.0451 16.9663 11.058 16.97 11.0709 16.9748C12.1028 15.7288 12.5416 14.0389 12.1509 12.3867L2.22595 15.8767C2.41539 16.2748 2.65383 16.6364 2.92508 16.9654C2.92858 16.9634 2.93208 16.9623 2.93536 16.9612Z" fill="white"/>
<path d="M13.673 20.2329C13.2921 20.4005 12.8398 20.5002 12.3535 20.5002C11.9022 20.5002 11.4498 20.4005 11.0326 20.2329C10.6168 20.0308 10.1635 19.9297 9.67792 19.9297C9.19142 19.9297 8.73904 20.0308 8.32188 20.2329C7.90538 20.4005 7.45431 20.5002 7.00106 20.5002C6.51478 20.5002 6.06371 20.4005 5.68112 20.2329C5.26396 20.0308 4.77702 19.9297 4.29029 19.9297C3.8401 19.9297 3.35294 20.0308 2.93579 20.2329C2.55275 20.4005 2.10147 20.5002 1.61496 20.5002C1.16324 20.5002 0.2948 20.2329 0.2948 20.2329V18.3188C0.2948 18.3188 1.16324 18.5875 1.61496 18.5875C2.10147 18.5875 2.55275 18.4869 2.93579 18.3188C3.35294 18.1172 3.84032 18.0181 4.29029 18.0181C4.77702 18.0181 5.26418 18.1172 5.68112 18.3188C6.06371 18.4869 6.51478 18.5875 7.00106 18.5875C7.45431 18.5875 7.90516 18.4869 8.32188 18.3188C8.73904 18.1172 9.19164 18.0181 9.67792 18.0181C10.1638 18.0181 10.6168 18.1172 11.0326 18.3188C11.4498 18.4869 11.9022 18.5875 12.3535 18.5875C12.84 18.5875 13.2921 18.4869 13.673 18.3188C13.673 19.2926 13.673 19.2926 13.673 20.2329Z" fill="white"/>
</svg>
