<svg width="22" height="24" viewBox="0 0 22 24" fill="none" xmlns="http://www.w3.org/2000/svg">
<path fill-rule="evenodd" clip-rule="evenodd" d="M20.4481 15.741C20.9235 15.741 21.363 15.9792 21.6279 16.3724L21.6291 16.3734C22.0346 16.9201 21.7827 17.605 21.5579 18.2164C21.4952 18.3869 21.4346 18.5516 21.3909 18.7061H15.2981C14.7858 18.7061 14.3833 19.1178 14.3833 19.6209C14.3833 20.1241 14.7858 20.5358 15.2981 20.5358H20.7593L20.3291 21.7987C19.8629 22.8593 18.8742 23.5 17.7858 23.5H4.68562C3.59728 23.5 2.60956 22.8593 2.1701 21.8623L0.7152 17.6445C0.550916 17.2779 0.586858 16.7748 0.843543 16.3723C1.10844 15.9791 1.54789 15.7409 2.02327 15.7409H10.1736V12.5026C11.4027 11.4422 12.1807 9.87322 12.1807 8.12253C12.1807 6.37184 11.4027 4.80286 10.1736 3.74245V1.39636C10.1654 0.977433 10.5022 0.586245 10.8964 0.5C12.2054 0.527862 17.2724 3.26803 19.4244 10.4348C19.5795 10.9656 19.4881 11.5324 19.177 11.9903C18.8659 12.438 18.3813 12.7224 17.8412 12.7768C16.6513 12.8867 14.3462 13.3169 12.0042 14.9545V15.741H20.4481Z" fill="white"/>
<path fill-rule="evenodd" clip-rule="evenodd" d="M6.39804 12.3281C8.72069 12.3281 10.6036 10.4452 10.6036 8.12252C10.6036 5.79987 8.72069 3.91699 6.39804 3.91699C4.07539 3.91699 2.1925 5.79987 2.1925 8.12252C2.1925 10.4452 4.07539 12.3281 6.39804 12.3281ZM6.28522 10.2794V10.743H6.61689V10.2798C6.88436 10.2658 7.11761 10.2166 7.31663 10.1323C7.55662 10.0298 7.73998 9.8862 7.86672 9.70149C7.9948 9.51544 8.05951 9.29567 8.06086 9.0422C8.05951 8.86963 8.02783 8.7166 7.96581 8.58312C7.90514 8.44965 7.81953 8.3337 7.70897 8.23528C7.59841 8.13686 7.46763 8.05394 7.31663 7.98653C7.16563 7.91911 6.99979 7.86518 6.81913 7.82474L6.61689 7.77638V6.76869C6.75361 6.78642 6.86686 6.82834 6.95665 6.89445C7.07934 6.98478 7.14877 7.11151 7.16495 7.27465H8.00424C8.00019 7.02792 7.93413 6.81086 7.80604 6.62345C7.67796 6.43604 7.49864 6.28976 7.26809 6.18459C7.07794 6.09735 6.86087 6.04629 6.61689 6.03143V5.56575H6.28522V6.03321C6.05423 6.05008 5.8439 6.10054 5.65424 6.18459C5.41695 6.28976 5.23022 6.43604 5.09405 6.62345C4.95922 6.81086 4.89248 7.02995 4.89383 7.28072C4.89248 7.58677 4.99293 7.83013 5.19517 8.01079C5.3974 8.19146 5.67312 8.32426 6.02231 8.4092L6.28522 8.47522V9.54082C6.19599 9.53024 6.11307 9.51032 6.03647 9.48106C5.91783 9.43387 5.82277 9.36443 5.75132 9.27275C5.68121 9.17972 5.64143 9.06377 5.632 8.9249H4.78462C4.79137 9.22287 4.8635 9.47297 5.00102 9.6752C5.13989 9.87609 5.33269 10.0278 5.57942 10.1302C5.78504 10.2152 6.02031 10.2649 6.28522 10.2794ZM6.61689 9.53875C6.6944 9.52829 6.76518 9.51041 6.82924 9.4851C6.9398 9.44196 7.02541 9.38196 7.08608 9.30511C7.14675 9.22826 7.17709 9.13995 7.17709 9.04018C7.17709 8.94715 7.14945 8.86895 7.09417 8.80559C7.04024 8.74222 6.96069 8.68829 6.85553 8.6438C6.78644 8.61418 6.70689 8.58636 6.61689 8.56033V9.53875ZM6.28522 7.69347V6.77015C6.21462 6.78006 6.15125 6.79655 6.09512 6.81962C5.9967 6.85872 5.9212 6.91332 5.86861 6.98343C5.81738 7.05354 5.79176 7.13309 5.79176 7.22207C5.78907 7.29622 5.80457 7.36094 5.83828 7.41622C5.87333 7.4715 5.9212 7.51936 5.98187 7.55981C6.04254 7.59891 6.11265 7.63329 6.19219 7.66295C6.22242 7.67371 6.25343 7.68388 6.28522 7.69347Z" fill="white"/>
</svg>
