<svg width="18" height="24" viewBox="0 0 18 24" fill="none" xmlns="http://www.w3.org/2000/svg">
<path d="M17.0385 11.9864C16.9091 11.9289 16.7582 11.9505 16.6504 12.0475L14.3326 14.1066C14.2283 14.2 14.1888 14.3474 14.2283 14.4839C14.2715 14.6168 14.39 14.7175 14.5302 14.7318L15.2201 14.8181C15.3243 14.8289 15.3639 14.9079 15.3782 14.9403C15.3926 14.9798 15.4106 15.0517 15.3459 15.1271C14.5086 16.1082 13.4198 16.6795 12.101 16.8233C11.792 16.8556 11.4973 16.7622 11.2673 16.5537C11.0373 16.3489 10.9115 16.065 10.9115 15.756V8.76664H12.5322C12.7335 8.76664 12.8916 8.60492 12.8916 8.40731C12.8916 8.20965 12.7334 8.04798 12.5322 8.04798H10.9547C11.0409 7.51975 11.2781 7.04178 11.6302 6.69683C12.3274 6.01047 12.7119 5.0941 12.7119 4.12024C12.7119 3.12846 12.3202 2.20491 11.6087 1.51855C10.8936 0.828598 9.95211 0.472865 8.96746 0.501615C7.03416 0.566303 5.46738 2.19413 5.47457 4.13467C5.47816 5.07259 5.84113 5.96375 6.49515 6.63573C6.88328 7.03464 7.1312 7.52334 7.22823 8.04798H5.65071C5.45306 8.04798 5.29139 8.20965 5.29139 8.40731C5.29139 8.60497 5.45306 8.76664 5.65071 8.76664H7.27135V15.7596C7.27135 16.0686 7.14557 16.3525 6.91562 16.5573C6.68921 16.7622 6.39457 16.8592 6.08551 16.8233C4.77029 16.6831 3.67783 16.1118 2.83699 15.1235C2.7759 15.0553 2.79386 14.9798 2.80824 14.9403C2.82261 14.9079 2.86215 14.8289 2.96637 14.8145L3.65632 14.7318C3.79648 14.7175 3.91148 14.6168 3.9546 14.4839C3.99773 14.3473 3.9546 14.2 3.85038 14.1066L1.53255 12.0475C1.42833 11.9505 1.27739 11.929 1.14807 11.9864C1.01869 12.0439 0.936035 12.1733 0.936035 12.3134V14.5701C0.936035 17.4414 3.08137 19.8562 5.93103 20.1868C6.40535 20.2407 6.80786 20.388 7.12765 20.618C8.03678 21.2828 8.56506 22.1273 8.73751 23.1981C8.76626 23.367 8.91001 23.4964 9.08251 23.5H9.09324C9.26215 23.5 9.4095 23.3814 9.44544 23.2161C9.67539 22.1201 10.1354 21.2864 10.8002 20.7402C11.1595 20.4455 11.6483 20.2587 12.252 20.1868C15.1016 19.8562 17.2505 17.4414 17.2505 14.5701V12.3134C17.2505 12.1733 17.1678 12.0439 17.0385 11.9864ZM9.09324 4.84968C8.69079 4.84968 8.36376 4.52264 8.36376 4.12019C8.36376 3.71774 8.69074 3.39071 9.09324 3.39071C9.4957 3.39071 9.82273 3.71769 9.82273 4.12019C9.82273 4.52269 9.4957 4.84968 9.09324 4.84968Z" fill="white"/>
</svg>
