<svg width="20" height="18" viewBox="0 0 20 18" fill="none" xmlns="http://www.w3.org/2000/svg">
<path d="M15.4121 10.3852C16.0268 10.3852 16.5837 10.6351 16.9872 11.038C17.3911 11.4409 17.641 11.9984 17.641 12.6136C17.641 13.2283 17.3911 13.7852 16.9882 14.1886C16.5837 14.5926 16.0268 14.8424 15.4121 14.8424C14.7969 14.8424 14.2394 14.5926 13.83 14.1823C13.4281 13.7729 13.1838 13.2214 13.1838 12.6136C13.1838 11.9984 13.4336 11.4409 13.8365 11.038C14.2394 10.6351 14.7969 10.3852 15.4121 10.3852ZM11.8071 16.1251L11.2376 15.5556C11.1549 15.4729 11.1512 15.3406 11.2263 15.2532L11.8859 14.3802C11.8439 14.2965 11.8045 14.2104 11.768 14.1228C11.7326 14.0372 11.6998 13.9487 11.6696 13.8582L10.5717 13.7057C10.4607 13.6902 10.3804 13.5949 10.3804 13.486L10.3798 11.7417C10.3798 11.6243 10.4712 11.528 10.5867 11.5199L11.6696 11.3692C11.6998 11.2787 11.7329 11.19 11.7706 11.0989C11.8084 11.0091 11.846 10.9267 11.8859 10.8472L11.2179 9.96267C11.1504 9.87344 11.1612 9.74929 11.2381 9.67212L12.0119 8.89811C11.4384 8.58447 10.8258 8.3346 10.184 8.15953C9.47329 7.96583 8.72237 7.8619 7.94443 7.8619C6.25467 7.8619 4.68014 8.3556 3.35863 9.20572C1.99354 10.0842 0.896434 11.3435 0.21796 12.8327C0.0489323 13.2039 -0.0214084 13.5889 0.00562554 13.9661C0.0326595 14.3424 0.157856 14.7136 0.378852 15.0574C0.60011 15.4012 0.885936 15.6692 1.21664 15.8495C1.54682 16.0296 1.92661 16.1251 2.33685 16.1251H11.8071ZM16.7525 9.37895C16.6402 9.33249 16.5247 9.29129 16.4076 9.25664C16.3202 9.23696 16.2499 9.16478 16.2368 9.07082L16.0916 8.02594H14.7336L14.5882 9.07082C14.5761 9.15454 14.5166 9.22803 14.4302 9.25297C14.3121 9.28735 14.1956 9.32856 14.0769 9.37711C13.9565 9.42751 13.842 9.48236 13.731 9.54325C13.6567 9.58394 13.5625 9.58026 13.4906 9.52593L12.6486 8.88998L11.6888 9.84981L12.3216 10.6879C12.3751 10.7556 12.3861 10.8519 12.342 10.9325C12.2819 11.0422 12.2279 11.1532 12.1798 11.269C12.131 11.3876 12.0895 11.5028 12.0557 11.618C12.036 11.7057 11.9638 11.776 11.8696 11.7892L10.8245 11.9346V13.2931L11.8696 13.4382C11.9533 13.4503 12.0268 13.5099 12.0518 13.5962C12.0864 13.7159 12.1289 13.8354 12.1775 13.9527C12.2255 14.0687 12.2809 14.1834 12.342 14.2949C12.3827 14.3692 12.379 14.4634 12.3247 14.5354L11.6885 15.3776L12.6486 16.338L13.4861 15.7049C13.5541 15.6511 13.6504 15.6401 13.731 15.6842C13.841 15.7443 13.952 15.7983 14.0683 15.8466C14.1866 15.8954 14.3019 15.9369 14.4171 15.9708C14.5048 15.9905 14.5751 16.0626 14.5882 16.1569L14.7336 17.2015H16.0916L16.237 16.1563C16.2491 16.0726 16.3087 15.9991 16.395 15.9742C16.516 15.9393 16.6357 15.8968 16.7515 15.849C16.8656 15.802 16.9803 15.7461 17.0937 15.6842C17.168 15.6435 17.2622 15.6472 17.3341 15.7015L18.1767 16.338L19.1368 15.3776L18.5037 14.5398C18.4499 14.4718 18.4389 14.3755 18.4829 14.2949C18.5441 14.1834 18.5995 14.0687 18.6478 13.9522C18.694 13.8409 18.7352 13.7259 18.7693 13.6096C18.789 13.522 18.8612 13.4514 18.9554 13.4382L20 13.2931V11.9346L18.9554 11.7894C18.8717 11.7774 18.7982 11.7178 18.7732 11.6314C18.7386 11.512 18.6963 11.3928 18.6478 11.2755C18.5995 11.1593 18.5438 11.0443 18.4827 10.9325C18.442 10.8582 18.4457 10.764 18.5 10.6921L19.1368 9.84929L18.1767 8.88945L17.3386 9.52278C17.2706 9.57632 17.1743 9.58735 17.0937 9.54325C16.9827 9.48236 16.868 9.42724 16.7525 9.37895ZM10.4588 1.04068C9.81554 0.397898 8.92631 0 7.94443 0C6.96832 0 6.08433 0.392911 5.43683 1.03516C4.78801 1.68451 4.38985 2.57348 4.38985 3.5551C4.38985 4.53672 4.78801 5.42569 5.43105 6.06873C6.07357 6.71256 6.96254 7.1102 7.94443 7.1102C8.92605 7.1102 9.81502 6.71204 10.4583 6.06873C11.1014 5.42569 11.4995 4.53672 11.4995 3.5551C11.4995 2.57321 11.1016 1.68398 10.4588 1.04068Z" fill="white"/>
</svg>
