<svg width="20" height="20" viewBox="0 0 20 20" fill="none" xmlns="http://www.w3.org/2000/svg">
<path d="M19.7643 8.66235C19.7483 8.66235 19.7483 8.66235 19.7322 8.66235C19.2199 8.64634 18.6915 8.61432 18.1791 8.61432C18.1151 8.61432 18.067 8.61432 18.019 8.5983C17.8429 7.52552 17.4746 6.53279 16.9302 5.63613C16.9622 5.5881 17.0263 5.52405 17.1063 5.44399C17.4746 5.10775 17.8268 4.7715 18.2111 4.43525C17.6187 3.53859 16.8661 2.722 16.0175 2.06551C15.6332 2.43378 15.2329 2.78604 14.8647 3.1383C14.8166 3.18634 14.7686 3.21836 14.7206 3.23437C13.8719 2.62593 12.8952 2.1776 11.8545 1.92141C11.8545 1.88939 11.8385 1.85736 11.8545 1.80933C11.8705 1.53713 11.8865 1.24892 11.8865 0.976716C11.9025 0.704517 11.9025 0.448329 11.9185 0.192141C11.4061 0.0960704 10.8777 0.0320235 10.3333 0C10.2053 0 10.0611 0 9.93305 0C9.53276 0 9.13247 0.0160118 8.74819 0.064047C8.74819 0.320235 8.73217 0.592434 8.71616 0.848622C8.70015 1.13683 8.68414 1.40903 8.68414 1.68123C8.68414 1.72927 8.68414 1.76129 8.66813 1.79331C7.59534 1.95343 6.60261 2.33771 5.70596 2.88211C5.65792 2.8661 5.60988 2.81807 5.56185 2.77003C5.20959 2.36974 4.84132 2.00147 4.48906 1.60117C3.57639 2.19361 2.77581 2.93015 2.11933 3.79478C2.47158 4.16305 2.79182 4.53132 3.12806 4.88358C3.20812 4.97965 3.27217 5.02769 3.30419 5.09173C2.69575 5.94036 2.23141 6.90106 1.97522 7.95784C1.92718 7.97385 1.87915 7.97385 1.8151 7.97385C1.30273 7.94182 0.774339 7.92581 0.261963 7.9098H0.197916C0.0858338 8.43819 0.0217869 8.96657 0.00577511 9.52699C-0.0102366 10.0714 0.00577512 10.5998 0.0698221 11.1282C0.0858338 11.1282 0.117857 11.1282 0.133869 11.1282C0.678268 11.1442 1.22267 11.1762 1.76707 11.1922C1.78308 11.1922 1.79909 11.1922 1.8151 11.1922C1.99123 12.281 2.37551 13.2897 2.93592 14.1864C2.91991 14.2184 2.88789 14.2344 2.85587 14.2665C2.4876 14.6027 2.11933 14.939 1.76707 15.2752C1.71903 15.3232 1.68701 15.3553 1.65498 15.3873C2.24742 16.2839 2.98396 17.0685 3.83258 17.725C3.84859 17.725 3.84859 17.709 3.8646 17.693C4.24889 17.3247 4.64918 16.9724 5.03346 16.5882C5.06549 16.5561 5.09751 16.5401 5.11352 16.5241C5.96214 17.1326 6.93886 17.5969 8.01165 17.8371C8.02766 17.8851 8.02766 17.9171 8.01165 17.9812C7.97962 18.5096 7.96361 19.038 7.9476 19.5663C7.9476 19.5824 7.9476 19.5824 7.9476 19.5984C8.45998 19.6944 8.98836 19.7585 9.51675 19.7905C9.64484 19.7905 9.78895 19.8065 9.91704 19.8065C10.3173 19.8065 10.7176 19.7745 11.1019 19.7265C11.1019 19.7105 11.1019 19.7105 11.1019 19.6944C11.1179 19.1661 11.1499 18.6377 11.1499 18.1093C11.1499 18.0612 11.1499 18.0132 11.166 17.9652C12.1747 17.8051 13.1194 17.4688 13.968 16.9724L11.6783 14.5867C11.3101 14.7308 10.9258 14.8269 10.5255 14.8749C10.2693 14.9069 9.9971 14.9229 9.7249 14.9069C9.4527 14.8909 9.19652 14.8589 8.92432 14.8109C8.15575 14.6507 7.45124 14.3305 6.84279 13.8662C6.41047 13.5299 6.0422 13.1296 5.73798 12.6813C5.32167 12.0408 5.03346 11.3203 4.93739 10.5197C4.90537 10.2475 4.88936 9.97531 4.90537 9.70311C4.92138 9.43092 4.9534 9.15872 5.00144 8.88652C5.16156 8.11795 5.4978 7.41344 5.96214 6.821C6.29839 6.38868 6.69868 6.02041 7.16302 5.71619C7.78748 5.29989 8.52402 5.02769 9.3086 4.93162C9.56479 4.89959 9.83698 4.88358 10.1092 4.89959C10.3814 4.9156 10.6536 4.94763 10.9098 4.99566C11.6783 5.15578 12.3829 5.47602 12.9913 5.94036C13.4236 6.2766 13.7919 6.6769 14.0961 7.14124C14.5124 7.76569 14.7846 8.50223 14.8807 9.28681C14.9127 9.55901 14.9287 9.83121 14.9127 10.1034C14.8967 10.3756 14.8647 10.6478 14.8166 10.92C14.7366 11.2883 14.6405 11.6245 14.4804 11.9448L16.7861 14.3465C17.2824 13.594 17.6507 12.7453 17.8589 11.8327C17.8749 11.8327 17.8909 11.8327 17.9069 11.8327C18.4513 11.8647 18.9957 11.8647 19.5401 11.8967C19.5561 11.8967 19.5881 11.8967 19.6041 11.8967C19.7162 11.3843 19.7803 10.8399 19.7963 10.2955C19.8443 9.73514 19.8283 9.19074 19.7643 8.66235Z" fill="white"/>
<path d="M13.0232 11.3043C12.9912 11.2562 12.9592 11.2082 12.9272 11.1601C13.0072 10.968 13.0713 10.7599 13.1193 10.5517C13.1513 10.3756 13.1834 10.1994 13.1834 10.0233C13.1834 9.84718 13.1834 9.65504 13.1674 9.49492C13.1353 9.22272 13.0713 8.96654 12.9592 8.71035C12.9432 8.6463 12.9112 8.58225 12.8952 8.53422C12.7671 8.24601 12.6069 7.97381 12.3988 7.71762C12.3347 7.65357 12.2707 7.57351 12.1906 7.50947C12.0946 7.4134 11.8864 7.2853 11.7743 7.18923C11.5822 7.07715 11.3901 6.98108 11.1819 6.90102H11.1659C10.8296 6.77293 10.4614 6.70888 10.0771 6.69287C9.51668 6.67686 8.97228 6.80495 8.50794 7.04513L8.42788 7.15721C8.42788 7.15721 8.4599 7.17322 8.49192 7.20524C8.71609 7.36536 9.43662 7.84571 9.78888 8.1019C9.88495 8.16595 9.93298 8.26202 9.93298 8.3741C9.93298 8.40612 9.93298 8.45416 9.91697 8.48618C9.62876 9.33481 9.18043 9.99129 8.588 10.4877C8.55597 10.5037 8.53996 10.5197 8.50794 10.5357C8.39585 10.5837 8.28377 10.5677 8.17169 10.5037C7.80342 10.2635 7.05087 9.75111 6.81069 9.59099C6.76266 9.55897 6.73063 9.54296 6.73063 9.54296L6.63456 9.70308L6.61855 9.7351C6.61855 9.79915 6.60254 9.86319 6.60254 9.92724C6.60254 10.1834 6.65057 10.7118 6.87474 11.2722C7.00283 11.5284 7.14694 11.7526 7.33908 11.9767C7.33908 11.9928 7.35509 11.9928 7.3711 12.0088C7.53122 12.2009 7.70735 12.377 7.9155 12.5372C8.29978 12.8414 8.76412 13.0495 9.2765 13.1616C9.45263 13.1936 9.61275 13.2096 9.78888 13.2257C9.96501 13.2257 10.1411 13.2257 10.3173 13.2096C10.5414 13.1776 10.7496 13.1296 10.9577 13.0655C11.0058 13.0976 11.0698 13.1456 11.1179 13.1776L17.2664 19.5823C17.5225 19.8545 17.8428 19.9826 18.179 19.9986C18.5153 20.0146 18.8515 19.8865 19.1237 19.6304C19.6521 19.134 19.6681 18.3014 19.1718 17.773L13.0232 11.3043ZM18.7074 19.134C18.5633 19.2621 18.3872 19.3261 18.2111 19.3261C18.0349 19.3261 17.8428 19.2461 17.7147 19.102C17.4425 18.8138 17.4585 18.3654 17.7467 18.1092C17.8908 17.9811 18.0669 17.9011 18.2431 17.9171C18.4192 17.9171 18.6113 17.9972 18.7394 18.1413C19.0116 18.4135 18.9956 18.8618 18.7074 19.134Z" fill="white"/>
</svg>
