<svg width="20" height="20" viewBox="0 0 20 20" fill="none" xmlns="http://www.w3.org/2000/svg">
<path fill-rule="evenodd" clip-rule="evenodd" d="M11.5053 8.49495C11.915 8.90555 12.1207 9.41162 12.1216 10.0114C12.1216 10.5948 11.9167 11.093 11.5053 11.5062L11.5105 11.495C11.1077 11.9186 10.6034 12.1321 9.9992 12.1338C9.40804 12.1338 8.90544 11.9246 8.494 11.5062L8.48879 11.5002C8.08081 11.0887 7.87681 10.5922 7.87768 10.0115C7.87941 9.41423 8.08254 8.9099 8.48879 8.50017L8.494 8.49496C8.90633 8.07656 9.40893 7.86649 10.0001 7.86649C10.6042 7.86823 11.1077 8.08177 11.5114 8.50538L11.5053 8.49495ZM11.1945 6.17807C10.823 6.06695 10.4246 6.0114 10.0001 6.0114C9.47663 6.0114 8.98619 6.09647 8.52786 6.2666L8.53306 6.26139C8.03393 6.45844 7.57993 6.76226 7.17195 7.17286V7.16678C6.39764 7.94802 6.01049 8.89247 6.01049 10.0001C6.01136 10.2727 6.03566 10.5444 6.08254 10.817L6.07733 10.8005C6.08948 10.8638 6.10424 10.9307 6.12247 11.0001C6.1242 11.0062 6.12594 11.0123 6.12767 11.0166C6.29261 11.6867 6.6407 12.2875 7.17194 12.817C7.95232 13.5973 8.89503 13.988 10.0002 13.9888C11.1052 13.9888 12.0479 13.5982 12.8284 12.817V12.8222C13.186 12.4593 13.4655 12.0574 13.6669 11.6164C13.6686 11.613 13.6704 11.6095 13.6721 11.6052C13.7876 11.3326 13.8744 11.0479 13.9334 10.7492L13.9282 10.7657C13.9681 10.514 13.989 10.2588 13.989 10.0001C13.989 8.89247 13.6018 7.94803 12.8275 7.16678C12.3492 6.68241 11.8067 6.35341 11.1999 6.17807L11.1945 6.17807ZM18.2552 4.31089C18.2569 4.4628 18.2057 4.59473 18.0998 4.70498L16.9166 5.93327C17.1849 6.38553 17.4036 6.86295 17.572 7.36642V7.37163C17.6206 7.52093 17.6666 7.67025 17.7109 7.82127L19.4444 7.82214C19.5981 7.82214 19.73 7.87596 19.8385 7.9836C19.947 8.0921 20.0008 8.22404 20 8.37769V11.5999C20.0008 11.7544 19.947 11.8855 19.8385 11.994C19.73 12.1025 19.5981 12.1563 19.4444 12.1555H17.7274C17.5842 12.6824 17.388 13.1902 17.1389 13.678C17.1163 13.7206 17.092 13.7631 17.0668 13.8056L18.2942 14.9888C18.4053 15.0956 18.4635 15.2249 18.4661 15.3777C18.4696 15.5305 18.4175 15.6615 18.3107 15.7718L16.0667 18.0947C15.9608 18.2058 15.8306 18.2631 15.6778 18.2665C15.5225 18.27 15.3896 18.2179 15.2777 18.1111L14.0442 16.9219C13.453 17.2683 12.8271 17.5287 12.1666 17.7049V19.4445C12.1674 19.5981 12.1136 19.7301 12.0051 19.8385C11.8966 19.9462 11.7647 20 11.611 20H8.40013C8.24648 20 8.11453 19.9462 8.00604 19.8385C7.89753 19.73 7.84371 19.5981 7.84458 19.4445V17.717C7.52947 17.632 7.22391 17.5269 6.92791 17.4002C6.67445 17.2917 6.42618 17.1693 6.18312 17.0339L4.97738 18.2839C4.87148 18.3959 4.74127 18.4531 4.58849 18.4558C4.43398 18.4592 4.30029 18.4071 4.18832 18.3004L1.86632 16.0555C1.75694 15.9487 1.70139 15.8194 1.69965 15.6666C1.69618 15.5121 1.74826 15.3784 1.85503 15.2664L3.07726 13.9999C3.0026 13.8767 2.93142 13.7525 2.86632 13.6275L2.86111 13.6223C2.61893 13.1501 2.43055 12.6614 2.29427 12.1553H0.555556C0.40191 12.1562 0.269957 12.1024 0.161468 11.9938C0.0529614 11.8853 -0.000858534 11.7534 1.03536e-05 11.5998V8.37754C-0.000857646 8.22389 0.0529614 8.09194 0.161468 7.98345C0.269975 7.87494 0.401912 7.82112 0.555556 7.82199H2.30035C2.44879 7.25255 2.6632 6.71088 2.94444 6.19959L1.68924 4.98866C1.57987 4.88189 1.52431 4.75255 1.52258 4.59977C1.51997 4.44526 1.57206 4.31244 1.67796 4.19959L3.92285 1.8776C4.03049 1.76822 4.15982 1.71266 4.31174 1.71093C4.46364 1.70919 4.59558 1.76041 4.70582 1.86631L5.95582 3.07204C6.54784 2.72222 7.17718 2.4592 7.84471 2.28298V0.555556C7.84384 0.401043 7.89766 0.269957 8.00617 0.161468C8.11467 0.0529614 8.24661 -0.000858534 8.40026 1.03536e-05H11.6111C11.7648 -0.000857646 11.8967 0.0529614 12.0052 0.161468C12.1137 0.269975 12.1676 0.401046 12.1667 0.555556V2.28298C12.7301 2.43749 13.2709 2.65451 13.7891 2.93315L14.9887 1.68836C15.0955 1.57898 15.2248 1.52342 15.3776 1.52169C15.5321 1.51909 15.6658 1.57117 15.7778 1.67794L18.0885 3.92282C18.1978 4.0296 18.2534 4.15898 18.2552 4.31089Z" fill="white"/>
</svg>
