<svg width="27" height="24" viewBox="0 0 27 24" fill="none" xmlns="http://www.w3.org/2000/svg">
<path d="M9.11631 1.50399C9.11631 0.727715 9.75559 0.0427628 10.5775 0.0427628H16.4225C17.1987 0.0427628 17.8837 0.727715 17.8837 1.50399V2.96523H20.0755C21.2628 2.96523 22.2674 3.96982 22.2674 5.15707V11.002L24.2766 11.6869C25.3268 12.0523 25.6008 13.4222 24.7789 14.1528L20.1669 18.3995C19.4363 18.8105 18.6143 19.0844 17.8837 19.0844C16.9704 19.0844 16.0115 18.7191 15.1439 18.1712C14.1393 17.4405 12.815 17.4405 11.8105 18.1712C11.0342 18.6735 10.0752 19.0844 9.07064 19.0844C8.34003 19.0844 7.51808 18.8105 6.78747 18.3995L2.17546 14.1528C1.35352 13.4222 1.6275 12.0523 2.67776 11.6869L4.73261 11.002V5.15707C4.73261 3.96982 5.69155 2.96523 6.92446 2.96523H9.11631V1.50399ZM7.65508 10.0431L12.5411 8.39918C13.1347 8.21652 13.8196 8.21652 14.4133 8.39918L19.3449 10.0431V5.88769H7.65508V10.0431ZM14.3219 19.3127C15.3722 20.0434 16.6051 20.5 17.8837 20.5C19.0709 20.5 20.3952 20.0434 21.3998 19.3127C21.9477 18.9474 22.6784 18.9931 23.1807 19.4041C23.8656 19.952 24.6876 20.363 25.5095 20.5457C26.2858 20.7283 26.7881 21.5046 26.6054 22.3265C26.4228 23.1028 25.6008 23.6051 24.8245 23.4225C23.7286 23.1485 22.7697 22.6462 22.1761 22.2809C20.8518 22.9658 19.3906 23.4225 17.8837 23.4225C16.4225 23.4225 15.0982 23.0115 14.185 22.6005C13.911 22.4635 13.6827 22.3265 13.5 22.2352C13.2717 22.3265 13.0434 22.4635 12.7694 22.6005C11.8561 23.0115 10.5319 23.4225 9.11631 23.4225C7.60941 23.4225 6.10252 22.9658 4.77828 22.2809C4.18465 22.6462 3.22572 23.1485 2.12979 23.4225C1.35352 23.6051 0.531573 23.1028 0.348919 22.3265C0.166265 21.5503 0.668563 20.7283 1.44484 20.5457C2.26678 20.363 3.13439 19.952 3.77368 19.4041C4.27598 18.9931 5.00659 18.9474 5.55456 19.3127C6.55915 20.0434 7.88339 20.5 9.11631 20.5C10.3492 20.5 11.6278 20.0434 12.6324 19.3127C13.1347 18.9474 13.8196 18.9474 14.3219 19.3127Z" fill="white"/>
</svg>
