<svg width="20" height="20" viewBox="0 0 20 20" fill="none" xmlns="http://www.w3.org/2000/svg">
<mask id="mask0_5_4789" style="mask-type:alpha" maskUnits="userSpaceOnUse" x="0" y="0" width="20" height="20">
<rect width="20" height="20" fill="#D9D9D9"/>
</mask>
<g mask="url(#mask0_5_4789)">
<mask id="mask1_5_4789" style="mask-type:alpha" maskUnits="userSpaceOnUse" x="-1" y="0" width="21" height="25">
<path d="M10.5866 2.68454L11.0314 0.375394C11.044 0.283912 11.0187 0.192429 10.962 0.113565C10.8926 0.0441639 10.8011 0 10.7096 0H9.09761C9.00613 0 8.91465 0.0441639 8.84525 0.113565C8.78846 0.192429 8.76638 0.283912 8.78846 0.375394L9.2238 2.68454H10.5866Z" fill="#10293A"/>
<path d="M6.49829 3.93063H13.3185C13.2617 2.6057 12.4384 1.42905 11.2175 0.924316L10.8516 2.85492C10.8295 2.92432 10.7727 2.96848 10.7033 2.96848H9.11659C9.04719 2.96848 8.99041 2.92116 8.98094 2.85492L8.60239 0.924316C7.37842 1.42589 6.55507 2.60255 6.49829 3.93063Z" fill="#10293A"/>
<path d="M14.085 4.21436H5.74426C5.52659 4.21436 5.34363 4.3847 5.34363 4.60237V4.71593C5.34363 4.9336 5.52659 5.10395 5.74426 5.10395H14.085C14.29 5.10395 14.473 4.9336 14.473 4.71593V4.60237C14.473 4.3847 14.29 4.21436 14.085 4.21436Z" fill="#10293A"/>
<path d="M6.79481 5.39111V6.05357C6.79481 6.11036 6.76011 6.16714 6.69071 6.18922C6.19859 6.33749 5.88945 6.8296 5.8579 7.25231C5.8232 7.65294 6.04087 7.96209 6.29323 8.29332L6.38472 8.40689C6.48882 8.53307 6.5803 8.64663 6.68124 8.7255C6.78535 8.80436 6.84213 8.90846 6.88629 8.99995C7.06926 9.59301 7.42257 10.429 8.14181 11.1482C8.25538 11.2523 8.34686 11.3438 8.43834 11.41L9.12288 11.7634C9.615 12.0157 10.1954 12.0157 10.6876 11.7634L11.3847 11.41C11.4636 11.3406 11.5677 11.2492 11.6592 11.1577C12.391 10.4258 12.757 9.59301 12.9273 9.02203C12.9715 8.90846 13.0314 8.80436 13.145 8.71288C13.2364 8.64348 13.3279 8.52992 13.432 8.40373L13.5235 8.29017C13.7759 7.95894 13.9935 7.64979 13.9588 7.23969C13.9241 6.8296 13.6276 6.33749 13.126 6.18922C13.0693 6.16714 13.0219 6.11036 13.0219 6.05357V5.39111H6.79481Z" fill="#10293A"/>
<path d="M15.1134 19.262C15.1134 19.1926 15.1828 19.1358 15.2491 19.1264C15.328 19.1264 15.3847 19.1737 15.3974 19.2525C15.5582 20.2242 15.7286 21.2052 15.8989 22.1895C16.0598 23.1264 16.2175 24.0633 16.3784 25.0002H19.8075C19.7633 24.0191 19.4194 18.3724 18.1387 16.3724C17.7601 15.7794 17.328 15.4008 17.328 15.4008C16.4699 14.6469 15.5582 14.4639 14.6876 14.2809C14.5267 14.2589 14.369 14.2242 14.2207 14.1895V19.3882C14.186 20.2904 14.4478 21.0917 14.9746 21.7636C15.022 20.9308 15.0661 20.098 15.1134 19.262Z" fill="#10293A"/>
<path d="M13.1827 19.2396H13.9367V14.1197C13.6749 14.0503 13.4225 13.9715 13.1827 13.8579V19.2396Z" fill="#10293A"/>
<path d="M5.88 19.2396H6.63395V13.8579C6.3942 13.9715 6.14183 14.063 5.88 14.1197V19.2396Z" fill="#10293A"/>
<path d="M3.9147 22.1863C4.08505 21.2052 4.25855 20.221 4.41628 19.2494C4.4289 19.1705 4.50776 19.1232 4.56455 19.1232C4.64341 19.1358 4.70019 19.1926 4.70019 19.2589L4.71281 19.486C4.75698 20.2399 4.80429 21.0065 4.84846 21.7699C5.32795 21.1201 5.58978 20.3882 5.58978 19.5428V14.1895C5.45414 14.2242 5.30272 14.2462 5.15445 14.2809C4.25224 14.4639 3.33742 14.6469 2.49199 15.4008C2.47937 15.4008 2.05666 15.7794 1.66865 16.3724C0.38789 18.3819 0.0471965 24.0159 -0.00012207 25.0002H3.4289C3.59609 24.0601 3.75698 23.1232 3.9147 22.1863Z" fill="#10293A"/>
<path d="M11.3879 11.7319L10.8295 12.019C10.5425 12.1673 10.2239 12.2461 9.91471 12.2461C9.5961 12.2461 9.28695 12.1673 8.99042 12.019L8.43206 11.7319C8.27118 12.2335 8.04405 12.6688 7.72228 13.0348C7.46992 13.3313 7.19547 13.549 6.92102 13.7099V19.2398H12.8958V13.7099C12.6213 13.549 12.3469 13.3313 12.0945 13.0348C11.7759 12.6688 11.5582 12.2367 11.3879 11.7319Z" fill="#10293A"/>
<path d="M5.02508 24.9966H14.7948C14.839 24.0723 14.8989 23.1354 14.9557 22.1985C14.2806 21.4572 13.9494 20.5518 13.9494 19.5234H13.0472C13.0345 19.5234 13.0345 19.5234 13.0345 19.5234H5.87997C5.87997 20.5518 5.54874 21.454 4.87366 22.208C4.92098 23.1354 4.97776 24.0723 5.02508 24.9966Z" fill="#10293A"/>
</mask>
<g mask="url(#mask1_5_4789)">
<rect width="20" height="20" fill="white"/>
</g>
</g>
</svg>
