<svg width="23" height="24" viewBox="0 0 23 24" fill="none" xmlns="http://www.w3.org/2000/svg">
<path d="M11.5723 1.12909C11.5723 0.962245 11.5061 0.802234 11.3881 0.684256C11.2701 0.566279 11.1101 0.5 10.9432 0.5H9.79291C9.5204 0.500077 9.25677 0.596896 9.04898 0.773208C8.84119 0.949519 8.70274 1.19387 8.6583 1.46273L8.42689 2.88043C8.39039 3.07833 8.30641 3.26441 8.18216 3.42271C8.05791 3.581 7.8971 3.70678 7.71354 3.78925C7.25173 4.00663 6.80905 4.26254 6.39021 4.55426C6.22695 4.67227 6.03747 4.74885 5.83807 4.77742C5.63867 4.80599 5.43531 4.7857 5.24548 4.71828L3.89743 4.21051C3.64259 4.11404 3.36175 4.11136 3.10511 4.20294C2.84847 4.29453 2.63278 4.4744 2.49658 4.71041L0.717156 7.79296C0.58169 8.02856 0.534103 8.30454 0.582846 8.57191C0.631588 8.83927 0.773505 9.08071 0.983396 9.25335L2.09666 10.1644C2.25006 10.2944 2.36943 10.4598 2.44441 10.6464C2.51939 10.833 2.54771 11.035 2.52692 11.235C2.50669 11.4866 2.49546 11.7416 2.49546 12C2.49546 12.2584 2.50669 12.5134 2.52692 12.765C2.54771 12.965 2.51939 13.167 2.44441 13.3536C2.36943 13.5402 2.25006 13.7056 2.09666 13.8356L0.983396 14.7467C0.773505 14.9193 0.631588 15.1607 0.582846 15.4281C0.534103 15.6955 0.58169 15.9714 0.717156 16.207L2.49658 19.2896C2.63278 19.5256 2.84847 19.7055 3.10511 19.7971C3.36175 19.8886 3.64259 19.886 3.89743 19.7895L5.24548 19.2817C5.43531 19.2143 5.63867 19.194 5.83807 19.2226C6.03747 19.2511 6.22695 19.3277 6.39021 19.4457C6.80905 19.7375 7.25173 19.9934 7.71354 20.2108C7.8971 20.2932 8.05791 20.419 8.18216 20.5773C8.30641 20.7356 8.39039 20.9217 8.42689 21.1196L8.6583 22.5373C8.70274 22.8061 8.84119 23.0505 9.04898 23.2268C9.25677 23.4031 9.5204 23.4999 9.79291 23.5H13.3518C13.6241 23.4999 13.8876 23.403 14.0952 23.2267C14.3028 23.0504 14.4411 22.806 14.4853 22.5373L14.7178 21.1196C14.7543 20.9218 14.8381 20.7359 14.9621 20.5776C15.0862 20.4193 15.2467 20.2934 15.43 20.2108C15.8922 19.9934 16.3352 19.7375 16.7545 19.4457C16.9173 19.3273 17.1066 19.2504 17.3059 19.2219C17.5052 19.1933 17.7085 19.2138 17.8981 19.2817L19.2461 19.7895C19.5011 19.8858 19.7821 19.8884 20.0389 19.7968C20.2956 19.7053 20.5115 19.5255 20.6481 19.2896L22.4275 16.207C22.5629 15.9713 22.6103 15.6953 22.5613 15.4279C22.5124 15.1605 22.3702 14.9191 22.1602 14.7467L21.048 13.8356C20.8948 13.7054 20.7755 13.54 20.7003 13.3535C20.6252 13.167 20.5965 12.9651 20.6166 12.765C20.6166 12.7201 20.6245 12.674 20.6267 12.6291C20.6313 12.5471 20.6188 12.4651 20.5901 12.3881C20.5614 12.3112 20.5172 12.241 20.4601 12.1819C20.4031 12.1229 20.3345 12.0762 20.2586 12.0449C20.1827 12.0136 20.1011 11.9983 20.019 12H17.3072C17.1387 12.006 16.9782 12.073 16.8555 12.1885C16.7327 12.304 16.6561 12.4602 16.6399 12.628C16.5229 13.5773 16.1417 14.4747 15.5397 15.2179C14.9376 15.9611 14.139 16.5204 13.2346 16.8319C12.3303 17.1434 11.3567 17.1947 10.4246 16.98C9.49255 16.7652 8.63954 16.293 7.96274 15.6171C7.28593 14.9412 6.81254 14.0889 6.59648 13.1571C6.38042 12.2253 6.43037 11.2516 6.74064 10.3469C7.05092 9.4421 7.60905 8.64266 8.35147 8.0396C9.09388 7.43654 9.99073 7.05409 10.9399 6.93582C11.1075 6.92076 11.264 6.8454 11.3803 6.72372C11.4966 6.60204 11.5649 6.44231 11.5723 6.27415V1.12909Z" fill="white"/>
<path d="M20.0583 5.10586V9.11744C20.0583 9.28428 20.1246 9.44429 20.2426 9.56227C20.3606 9.68025 20.5206 9.74653 20.6874 9.74653H21.676C21.8429 9.74653 22.0029 9.68025 22.1208 9.56227C22.2388 9.44429 22.3051 9.28428 22.3051 9.11744V1.89862C22.3051 1.73178 22.2388 1.57176 22.1208 1.45379C22.0029 1.33581 21.8429 1.26953 21.676 1.26953H14.4583C14.2915 1.26953 14.1315 1.33581 14.0135 1.45379C13.8955 1.57176 13.8292 1.73178 13.8292 1.89862V2.88719C13.8291 2.96985 13.8453 3.05172 13.8768 3.12811C13.9084 3.2045 13.9547 3.27391 14.0132 3.33236C14.0716 3.3908 14.141 3.43714 14.2174 3.4687C14.2938 3.50026 14.3757 3.51643 14.4583 3.51628H18.4665L13.4787 8.50744C13.361 8.62557 13.2949 8.78553 13.2949 8.9523C13.2949 9.11907 13.361 9.27903 13.4787 9.39716L14.1786 10.0959C14.2369 10.1545 14.3063 10.2009 14.3826 10.2326C14.4589 10.2643 14.5408 10.2806 14.6235 10.2806C14.7061 10.2806 14.788 10.2643 14.8643 10.2326C14.9406 10.2009 15.01 10.1545 15.0683 10.0959L20.0583 5.10586Z" fill="white"/>
</svg>
