<svg width="11" height="13" viewBox="0 0 11 13" fill="none" xmlns="http://www.w3.org/2000/svg">
<path d="M3.16406 0.921875C3.28125 0.664062 3.53906 0.5 3.82031 0.5H6.65625C6.9375 0.5 7.19531 0.664062 7.3125 0.921875L7.5 1.25H9.75C10.1484 1.25 10.5 1.60156 10.5 2C10.5 2.42188 10.1484 2.75 9.75 2.75H0.75C0.328125 2.75 0 2.42188 0 2C0 1.60156 0.328125 1.25 0.75 1.25H3L3.16406 0.921875ZM0.75 3.5H9.75V11C9.75 11.8438 9.07031 12.5 8.25 12.5H2.25C1.40625 12.5 0.75 11.8438 0.75 11V3.5ZM3 5C2.78906 5 2.625 5.1875 2.625 5.375V10.625C2.625 10.8359 2.78906 11 3 11C3.1875 11 3.375 10.8359 3.375 10.625V5.375C3.375 5.1875 3.1875 5 3 5ZM5.25 5C5.03906 5 4.875 5.1875 4.875 5.375V10.625C4.875 10.8359 5.03906 11 5.25 11C5.4375 11 5.625 10.8359 5.625 10.625V5.375C5.625 5.1875 5.4375 5 5.25 5ZM7.5 5C7.28906 5 7.125 5.1875 7.125 5.375V10.625C7.125 10.8359 7.28906 11 7.5 11C7.6875 11 7.875 10.8359 7.875 10.625V5.375C7.875 5.1875 7.6875 5 7.5 5Z" fill="white"/>
</svg>
