<svg width="18" height="21" viewBox="0 0 18 21" fill="none" xmlns="http://www.w3.org/2000/svg">
<path d="M15.3034 8.92983V16.3482H2.70067V8.92983C2.2581 8.97198 1.77338 8.92983 1.33081 8.76123V19.6358C1.33081 20.0995 1.71016 20.4999 2.19488 20.4999H15.8092C16.2729 20.4999 16.6733 20.1206 16.6733 19.6358V8.78231C16.2307 8.92983 15.7671 8.97198 15.3034 8.92983Z" fill="white"/>
<path d="M17.6007 4.86249L16.9263 3.21865C16.6945 2.64963 16.5259 2.05954 16.3995 1.46944C16.2941 0.900422 15.8094 0.5 15.2193 0.5H2.76405C2.19503 0.5 1.68923 0.900422 1.58386 1.46944C1.47848 2.08061 1.28881 2.67071 1.05699 3.23973L0.382594 4.88356C0.171846 5.38936 0.129697 5.95838 0.31937 6.48525C0.635492 7.37039 1.45741 7.93941 2.36363 7.93941C2.99587 7.93941 3.58597 7.66544 3.98639 7.20179C4.40788 7.66544 4.9769 7.93941 5.60915 7.93941H5.7356C6.34677 7.93941 6.91579 7.66544 7.31621 7.24394C7.71663 7.68651 8.30672 7.93941 8.89682 7.93941H9.06542C9.65551 7.93941 10.2456 7.68651 10.646 7.24394C11.0465 7.66544 11.6155 7.93941 12.2266 7.93941H12.3742C13.0064 7.93941 13.5754 7.66544 13.9969 7.20179C14.3973 7.66544 14.9874 7.93941 15.6197 7.93941C16.5259 7.93941 17.3478 7.37039 17.6639 6.48525C17.8536 5.9373 17.8115 5.36828 17.6007 4.86249Z" fill="white"/>
<path d="M9.00203 12.2387C9.92932 12.2387 10.688 11.48 10.688 10.5527C10.688 9.62539 9.92932 8.8667 9.00203 8.8667C8.07473 8.8667 7.31604 9.62539 7.31604 10.5527C7.31604 11.48 8.07473 12.2387 9.00203 12.2387Z" fill="white"/>
<path d="M6.22021 14.5571V15.4211H11.784V14.5571C11.784 13.7141 11.236 12.9975 10.4773 12.7446C10.0558 13.0397 9.55004 13.2083 9.00209 13.2083C8.45415 13.2083 7.94835 13.0397 7.52685 12.7446C6.76816 12.9975 6.22021 13.7141 6.22021 14.5571Z" fill="white"/>
</svg>
